<?xml version="1.0" encoding="UTF-8" standalone="no"?><!DOCTYPE svg PUBLIC "-//W3C//DTD SVG 1.1//EN" "http://www.w3.org/Graphics/SVG/1.1/DTD/svg11.dtd"><svg width="100%" height="100%" viewBox="0 0 256 256" version="1.1" xmlns="http://www.w3.org/2000/svg" xmlns:xlink="http://www.w3.org/1999/xlink" xml:space="preserve" xmlns:serif="http://www.serif.com/" style="fill-rule:evenodd;clip-rule:evenodd;stroke-linejoin:round;stroke-miterlimit:1.41421;"><g><path d="M255.555,127.81c0,70.455 -57.11,127.565 -127.567,127.565c-70.45,0 -127.566,-57.11 -127.566,-127.565c0,-70.45 57.116,-127.566 127.566,-127.566c70.456,0 127.567,57.116 127.567,127.566" style="fill:#be0b16;fill-rule:nonzero;"/><path d="M130.136,78.171l33.011,81.476l-49.863,-39.278l16.852,-42.197l0,-0.001Zm58.644,100.245l-50.778,-122.202c-1.45,-3.524 -4.348,-5.39 -7.866,-5.39c-3.525,0 -6.634,1.866 -8.084,5.39l-55.732,134.04l19.065,0l22.062,-55.265l65.84,53.19c2.647,2.141 4.558,3.11 7.041,3.11c4.974,0 9.322,-3.73 9.322,-9.111c0,-0.876 -0.31,-2.267 -0.87,-3.762Z" style="fill:#fff;fill-rule:nonzero;"/></g></svg>