<svg xmlns="http://www.w3.org/2000/svg" viewBox="0 0 551.832 207.404"><g fill="#FF9F36"><path d="M153.377 71.514l-32.063-10.72V14.3l32.105 9.541zM161.743 23.841l32.118-9.541-.117 46.458-32.001 10.756V23.841M187.309 9.272L157.381 0l-29.526 9.272 29.576 7.943 29.878-7.943M234.25 71.514l-32.073-10.72V14.3l32.111 9.541zM242.617 23.841l32.105-9.541-.105 46.458-32 10.756V23.841M268.19 9.272L238.259 0l-29.541 9.272 29.589 7.943 29.883-7.943M32.109 91.778L0 82.244v46.488l32.072 10.728zM40.439 91.778l32.113-9.534-.108 46.457-32.005 10.759V91.778M66.017 77.216L36.081 67.94 6.549 77.216l29.571 7.943 29.897-7.943M112.943 139.46l-32.065-10.728V82.244l32.112 9.534zM121.314 91.778l32.105-9.534-.107 46.457-31.998 10.759V91.778M146.878 77.216l-29.926-9.276-29.537 9.276 29.586 7.943 29.877-7.943M72.509 207.404l-32.07-10.725v-46.487l32.113 9.535zM80.878 159.727l32.112-9.535-.112 46.453-32 10.759v-47.677M106.443 145.155l-29.922-9.27-29.541 9.27 29.583 7.94 29.88-7.94"/></g><g fill="#010101"><path d="M214.544 166.308l-2.358.007c-.872 0-1.98.587-2.244 1.537l-7.157 25.279-7.085-25.226c-.211-.79-.959-1.591-1.968-1.591h-2.795c-1.006 0-1.74.815-1.938 1.606l-6.586 24.963-6.811-25.032c-.27-.915-1.392-1.537-2.286-1.537l-3.399-.004c-.723 0-1.389.316-1.752.811-.249.344-.312.73-.199 1.067l10.51 37.302c.229.784.909 1.576 1.9 1.576h3.375c.915 0 1.72-.669 1.945-1.61l6.473-24.85 7.041 24.878c.213.763.893 1.582 1.886 1.582h3.318c.923 0 1.707-.64 1.931-1.59l10.123-37.275a1.217 1.217 0 0 0-.196-1.086c-.357-.495-1.02-.807-1.728-.807zM235.052 166.043c-12.056 0-17.542 10.677-17.542 20.592 0 12.384 6.825 20.378 17.375 20.378 7.562 0 13.322-3.826 15.812-10.51a1.464 1.464 0 0 0-.119-1.173c-.248-.443-.736-.788-1.303-.915l-3.351-.64c-.889-.144-1.92.393-2.257 1.163-1.621 3.719-4.59 5.823-8.308 5.938-3.572-.118-6.854-2.244-8.357-5.429-1.231-2.594-1.407-5.157-1.431-7.762l24.218-.006c.513 0 1.027-.227 1.404-.599a1.53 1.53 0 0 0 .474-1.094c-.059-9.641-4.46-19.943-16.615-19.943zm8.678 16.105h-17.833c.406-5.023 3.658-10.215 9.168-10.416 5.856.19 8.537 5.271 8.665 10.416zM274.228 165.699h-.638c-3.997 0-7.14 1.665-9.551 5.077l-.008-15.723c0-.891-.909-1.693-1.929-1.693h-3.467c-.909 0-1.925.719-1.936 1.693v49.089c.011.885.921 1.7 1.924 1.7l1.011-.008c.98 0 1.661-.777 1.89-1.506l1.092-3.469c2.528 3.612 6.344 5.726 10.43 5.726h.626c10.74 0 15.547-10.475 15.547-20.855 0-5.165-1.271-10.111-3.49-13.554-2.558-4-6.964-6.477-11.501-6.477zm7.227 20.997c0 2.283-.399 13.69-8.495 13.979-2.71-.106-5.447-1.699-6.978-4.06-1.115-1.789-1.781-4.252-1.942-7.306v-6.701c.126-5.146 3.732-10.787 8.898-11.007 8.118.324 8.517 12.632 8.517 15.095zM327.352 185.588c-2.27-1.623-4.989-2.17-7.718-2.718l-5.229-.97c-3.754-.621-5.923-1.63-5.923-4.945 0-3.509 3.622-4.852 6.697-4.93 3.763.093 6.581 1.77 7.952 4.724.331.696 1.049 1.162 1.806 1.162.126 0 .253-.011.383-.038l3.265-.727a2.006 2.006 0 0 0 1.294-.956c.22-.378.261-.791.124-1.155-1.987-5.828-7.064-8.916-14.729-8.916-6.925.02-14.336 3.11-14.336 11.736 0 5.89 3.697 9.631 10.988 11.124l5.861 1.114c3.213.62 6.5 1.717 6.5 5.175 0 5.126-5.948 5.64-7.742 5.676-4.034-.09-8.598-1.886-9.708-5.7-.222-.843-1.277-1.436-2.202-1.242l-3.419.706a1.995 1.995 0 0 0-1.25.89 1.527 1.527 0 0 0-.191 1.191c1.766 6.332 7.862 10.155 16.323 10.216h.182c7.557 0 15.625-3.238 15.625-12.335.001-3.701-1.666-7.011-4.553-9.082zM353.189 166.077c-12.058 0-17.547 10.678-17.547 20.592 0 12.379 6.826 20.378 17.384 20.378 7.559 0 13.305-3.826 15.809-10.513.138-.378.09-.799-.118-1.17-.248-.45-.734-.791-1.303-.915l-3.339-.641c-.797-.122-1.892.28-2.275 1.164-1.62 3.715-4.582 5.819-8.297 5.936-3.583-.116-6.861-2.241-8.365-5.419-1.221-2.602-1.401-5.16-1.42-7.768l24.21-.006c.503 0 1.028-.229 1.402-.599.3-.317.476-.706.473-1.101-.059-9.639-4.449-19.938-16.614-19.938zm8.69 16.109h-17.851c.408-5.022 3.666-10.234 9.171-10.412 5.844.178 8.533 5.263 8.68 10.412zM392.667 166.532a12.46 12.46 0 0 0-1.363-.084c-4.067 0-7.369 2.22-9.653 6.448l.011-3.702c-.006-.899-.906-1.686-1.918-1.686h-3.032c-.987 0-1.859.792-1.862 1.699l-.008 35.988c0 .905.875 1.698 1.87 1.698h3.537c.909 0 1.95-.725 1.96-1.698l.003-18.142c0-2.993.273-5.242 1.693-7.913 2.051-3.797 4.885-5.661 8.711-5.694.946-.008 1.784-.84 1.784-1.789v-3.365c-.001-.881-.76-1.651-1.733-1.76zM429.713 165.823h-2.782c-.875 0-1.997.626-2.268 1.548l-9.031 28.461-9.227-28.427c-.266-.949-1.388-1.583-2.269-1.583h-3.98c-.731 0-1.437.323-1.792.832a1.2 1.2 0 0 0-.194 1.074l12.623 37.535c.246.744.898 1.611 1.906 1.611h4.814c.887 0 1.611-.605 1.934-1.611l12.246-37.521a1.159 1.159 0 0 0-.178-1.077c-.368-.512-1.071-.842-1.802-.842zM438.869 151.399c-2.56 0-4.658 2.095-4.658 4.675 0 2.58 2.099 4.678 4.658 4.678 2.568 0 4.658-2.099 4.658-4.678 0-2.579-2.089-4.675-4.658-4.675zM440.789 165.596h-3.824c-1.031 0-1.985.839-1.985 1.76l-.015 38.217c0 .462.226.923.644 1.26.381.31.853.489 1.346.489l3.848.006h.003c1.047-.011 1.978-.825 1.978-1.747v-38.225c-.001-.935-.936-1.76-1.995-1.76zM476.501 191.512l-3.194.008c-.888 0-1.633.535-1.965 1.464-1.167 5.043-3.809 7.654-7.811 7.771-7.799-.23-8.402-11.125-8.402-14.458 0-6.645 2.291-13.814 8.699-14.006 3.871.116 6.688 2.9 7.535 7.436.161.922.864 1.616 1.839 1.741l3.416.042c1.011-.119 1.81-.889 1.807-1.852-1.202-8.193-6.868-13.485-14.444-13.485l-.257.008-.291-.008c-11.005 0-15.934 10.293-15.934 20.496 0 9.357 4.157 20.277 15.877 20.277h.548c7.382 0 12.957-5.184 14.549-13.588a1.505 1.505 0 0 0-.38-1.124c-.377-.423-.947-.695-1.592-.722zM499.321 166.077c-12.048 0-17.541 10.678-17.541 20.592 0 12.379 6.826 20.378 17.386 20.378 7.553 0 13.311-3.823 15.808-10.513a1.452 1.452 0 0 0-.125-1.17c-.257-.454-.727-.784-1.292-.915l-3.355-.641c-.787-.122-1.87.28-2.259 1.164-1.628 3.715-4.595 5.819-8.304 5.936-3.577-.116-6.865-2.241-8.361-5.419-1.231-2.602-1.411-5.16-1.429-7.768l24.21-.006c.515 0 1.041-.229 1.412-.606.314-.311.488-.701.476-1.093-.062-9.64-4.455-19.939-16.626-19.939zm8.69 16.109h-17.84c.401-5.026 3.646-10.234 9.162-10.412 5.86.178 8.546 5.263 8.678 10.412zM546.289 185.588c-2.29-1.623-5.007-2.174-7.732-2.718l-5.227-.97c-3.742-.621-5.911-1.63-5.911-4.945 0-4.524 5.591-4.903 6.697-4.93 3.757.093 6.575 1.77 7.951 4.727a2.014 2.014 0 0 0 1.798 1.159c.129 0 .26-.011.383-.038l3.264-.727a1.974 1.974 0 0 0 1.294-.959c.22-.376.264-.788.136-1.152-2.005-5.828-7.057-8.916-14.741-8.916-6.925.02-14.334 3.11-14.334 11.736 0 5.893 3.697 9.631 11.001 11.124l5.849 1.114c3.213.62 6.5 1.717 6.5 5.175 0 5.126-5.946 5.64-7.738 5.676-3.733-.084-8.524-1.624-9.704-5.696-.218-.847-1.265-1.439-2.21-1.246l-3.397.706c-.53.106-.994.442-1.272.898-.227.386-.302.802-.182 1.183 1.759 6.332 7.854 10.155 16.308 10.216h.194c7.547 0 15.618-3.238 15.618-12.335-.003-3.701-1.654-7.011-4.545-9.082z"/></g><g fill-rule="evenodd" clip-rule="evenodd" fill="#010101"><path d="M390.936 92.022v-8.675c.008-1.316.996-2.205 2.2-2.205h38.793c1.237 0 2.228.908 2.228 2.192v7.439c-.013 1.248-1.06 2.877-2.921 5.462l-20.088 28.755c7.455-.175 15.356.94 22.125 4.756 1.52.861 1.927 2.136 2.056 3.386v9.253c0 1.283-1.395 2.753-2.861 1.985-11.944-6.271-27.772-6.955-40.986.076-1.341.722-2.761-.73-2.761-2.008v-8.797c0-1.407.028-3.818 1.454-5.968L413.45 94.21l-20.264-.009c-1.253 0-2.239-.884-2.25-2.179M249.452 146.195h-11.809c-1.12-.066-2.012-.915-2.102-2.003l.012-60.698c0-1.214 1.013-2.183 2.265-2.183l10.995-.009c1.147.067 2.064.931 2.149 2.041v7.932h.213c2.867-7.671 8.265-11.243 15.539-11.243 7.383 0 12.004 3.572 15.301 11.243 2.874-7.671 9.373-11.243 16.315-11.243 4.95 0 10.342 2.041 13.647 6.635 3.746 5.112 2.98 12.52 2.98 19.038l-.005 38.303c0 1.217-1.018 2.188-2.279 2.188h-11.785c-1.185-.066-2.122-1.019-2.122-2.173v-32.187c0-2.553.22-8.943-.334-11.37-.879-4.09-3.522-5.23-6.935-5.23-2.859 0-5.839 1.915-7.055 4.969-1.208 3.075-1.096 8.182-1.096 11.631v32.172c0 1.217-1.023 2.188-2.275 2.188h-11.793c-1.179-.066-2.116-1.019-2.116-2.173l-.01-32.187c0-6.774 1.106-16.729-7.271-16.729-8.483 0-8.146 9.704-8.146 16.729l-.003 32.172c0 1.216-1.024 2.187-2.28 2.187M467.555 80.032c17.517 0 26.999 15.074 26.999 34.226 0 18.531-10.479 33.218-26.999 33.218-17.186 0-26.55-15.079-26.55-33.855 0-18.902 9.471-33.589 26.55-33.589m.104 12.389c-8.695 0-9.252 11.874-9.252 19.29 0 7.406-.11 23.242 9.148 23.242 9.149 0 9.593-12.772 9.593-20.564 0-5.107-.225-11.234-1.765-16.093-1.325-4.219-3.973-5.875-7.724-5.875zM517.254 146.195h-11.747c-1.195-.066-2.129-1.019-2.129-2.173l-.015-60.735c.099-1.108 1.082-1.976 2.267-1.976l10.953-.009c1.03.058 1.871.76 2.095 1.701v9.294h.218c3.3-8.306 7.939-12.264 16.084-12.264 5.289 0 10.463 1.912 13.768 7.147 3.084 4.855 3.084 13.024 3.084 18.905v38.198c-.128 1.08-1.097 1.913-2.252 1.913h-11.831c-1.104-.066-1.985-.873-2.111-1.913v-32.956c0-6.645.772-16.354-7.379-16.354-2.868 0-5.498 1.92-6.832 4.857-1.654 3.697-1.872 7.408-1.872 11.497v32.681c-.019 1.216-1.038 2.187-2.301 2.187M360.022 117.205c0 4.609.109 8.452-2.214 12.545-1.87 3.335-4.854 5.381-8.175 5.381-4.52 0-7.17-3.456-7.17-8.58 0-10.076 9.021-11.904 17.559-11.904v2.558m11.898 28.839c-.789.701-1.907.749-2.792.275-3.917-3.26-4.626-4.774-6.759-7.88-6.485 6.613-11.066 8.595-19.46 8.595-9.937 0-17.66-6.144-17.66-18.435 0-9.597 5.189-16.133 12.575-19.329 6.401-2.816 15.352-3.329 22.198-4.103v-1.532c0-2.816.217-6.149-1.436-8.577-1.432-2.176-4.192-3.073-6.625-3.073-4.5 0-8.511 2.319-9.486 7.104-.191 1.066-.986 2.122-2.046 2.176l-11.442-1.246c-.965-.213-2.039-.989-1.761-2.465 2.636-13.913 15.166-18.112 26.393-18.112 5.729 0 13.246 1.533 17.777 5.885 5.732 5.377 5.177 12.544 5.177 20.357v18.425c0 5.545 2.312 7.978 4.467 10.969.746 1.072.914 2.345-.046 3.139-2.408 2.02-6.695 5.755-9.044 7.854l-.03-.027zM205.319 117.205c0 4.609.113 8.452-2.208 12.545-1.868 3.335-4.864 5.381-8.167 5.381-4.528 0-7.181-3.456-7.181-8.58 0-10.076 9.013-11.904 17.556-11.904v2.558m11.893 28.839c-.773.701-1.905.749-2.782.275-3.919-3.26-4.623-4.774-6.77-7.88-6.472 6.613-11.064 8.595-19.449 8.595-9.939 0-17.671-6.144-17.671-18.435 0-9.597 5.198-16.133 12.592-19.329 6.408-2.816 15.345-3.329 22.188-4.103v-1.532c0-2.816.221-6.149-1.439-8.577-1.423-2.176-4.193-3.073-6.617-3.073-4.495 0-8.505 2.319-9.49 7.104-.195 1.066-.975 2.122-2.036 2.176l-11.439-1.246c-.972-.213-2.045-.989-1.773-2.465 2.63-13.913 15.158-18.112 26.393-18.112 5.739 0 13.255 1.533 17.776 5.885 5.735 5.377 5.186 12.544 5.186 20.357v18.425c0 5.545 2.299 7.978 4.449 10.969.755 1.072.928 2.345-.034 3.139-2.411 2.02-6.697 5.755-9.05 7.854l-.034-.027z"/></g></svg>