<svg viewBox="0 0 46 54" xmlns="http://www.w3.org/2000/svg" xmlns:xlink="http://www.w3.org/1999/xlink"><defs><path id="0" d="m0 38.508v-38.22h45.754v38.22h-45.754"/><path id="1" d="m34.519 15.865h-34.504v-15.792h34.504z"/><mask id="2" fill="#fff"><use xlink:href="#0"/></mask><mask id="3" fill="#fff"><use xlink:href="#1"/></mask></defs><g fill="#1f5081" fill-rule="evenodd"><path d="m22.873 10.328c-8.092-.013-14.649-1.433-14.646-3.172.003-1.74 6.565-3.138 14.656-3.125 8.092.013 14.649 1.433 14.646 3.172-.003 1.74-6.565 3.138-14.656 3.125m.004 23.03c-4.02 0-7.272-3.289-7.272-7.345 0-4.057 3.256-7.346 7.272-7.346 4.02 0 7.272 3.288 7.272 7.346 0 4.056-3.256 7.345-7.272 7.345m0-33.06c-12.594 0-22.877 3.42-22.877 7.666 0 1.119 2.747 17.16 3.836 23.515.488 2.852 7.786 7.03 19.04 7.03l.012-.034v.034c11.25 0 18.547-4.182 19.04-7.03 1.089-6.36 3.836-22.397 3.836-23.515 0-4.246-10.283-7.666-22.877-7.666" mask="url(#2)" transform="translate(0 .085)"/><path d="m33.71.073c-.348 0-.626.249-.626.249 0 0-5.634 4.506-15.816 4.507-10.182 0-15.816-4.507-15.816-4.507 0 0-.279-.249-.627-.249-.415 0-.809.282-.809.904 0 .065.006.131.018.195.874 4.727 1.514 8.08 1.625 8.591.763 3.477 7.498 6.101 15.608 6.102 8.111 0 14.845-2.625 15.609-6.102.112-.51.751-3.864 1.625-8.591.012-.064.018-.13.018-.195 0-.622-.394-.904-.809-.904" mask="url(#3)" transform="translate(5.61 37.86)"/><path d="m22.87 22.412c-2.01 0-3.644 1.648-3.644 3.681 0 2.033 1.632 3.681 3.644 3.681 2.01 0 3.644-1.648 3.644-3.681 0-2.033-1.632-3.681-3.644-3.681"/></g></svg>