<?xml version="1.0" encoding="utf-8"?>
<!-- Svg Vector Icons : http://www.onlinewebfonts.com/icon -->
<!DOCTYPE svg PUBLIC "-//W3C//DTD SVG 1.1//EN" "http://www.w3.org/Graphics/SVG/1.1/DTD/svg11.dtd">
<svg version="1.1" xmlns="http://www.w3.org/2000/svg" xmlns:xlink="http://www.w3.org/1999/xlink" x="0px" y="0px" viewBox="0 0 1000 1000" enable-background="new 0 0 1000 1000" xml:space="preserve">
<metadata> Svg Vector Icons : http://www.onlinewebfonts.com/icon </metadata>
<g><g id="_x35_151e0c8492e5103c096af88a51fa794"><path d="M966.5,316.3c0,0,14.6-13.6,18.4-39.2c4.8-31.6,0.6-70.1,0.6-70.1s-9.8,29.2-25.2,47.6c-11.8,14.2-31.8,23.6-31.8,23.6s-61.2,5.9-93.6-7.6c-23-9.6-20.5-39.9-20.5-39.9s13.7-17.4,31.9-36.2c13.5-13.9,30.1-27.2,41.5-42.2c16.4-21.5,18.5-41.9,18.5-41.9s-53.3,26.2-95.8,55.9C782.4,186,759,213.4,759,213.4l-7.9-12.7c0,0,23.7-25.2,30.2-54.5c7-31.5-3.2-67.4-3.2-67.4s-7.9,31.8-24.2,55.6c-14.4,21.1-37.5,34.7-37.5,34.7s-11.7,1.9-18.3-5.6c-10.6-12-18.2-35.6-18.2-35.6s-12.2,8-23.3,3.7c-13.3-5.2-25.8-22.7-25.8-22.7s-15.5,11.5-34.9,16.1c-16.8,4-38,1.3-38,1.3s-7.1,10.5-24,15.6c-17.1,5.2-44.1,5-44.1,5s7.8,19.5-3.1,33.8c-11.3,14.9-41.2,24.8-41.2,24.8l26.9,26.9c0,0-13.8,6.1-35.4,25c-16.5,14.4-33,36.4-48.3,51.3c-14.7,14.3-28.7,21.9-28.7,21.9s-81.3,7.5-132,82.3c-40.2,59.3-18.4,153.6-18.4,153.6s-57,58.7-120.3,5.3c-72.1-60.9-28.6-154.1-28.6-154.1s-94.7,60-25,186.7C106,732.2,230.1,671,230.1,671l-6.3,30.1L211.1,717l6.3,14.3c0,0,3.7,18.7,3.3,33.3c-0.3,9.5-4.9,17.3-4.9,17.3s-7.5,16.6-5.2,25.9c2.4,9.7,14.7,12.1,14.7,12.1s5.2,13,13.5,15.4c10.5,3.1,24.5-4.3,24.5-4.3s16,8.2,28,5.5c12.5-2.8,21.1-16.6,21.1-16.6s14.1,1.8,21.5-2.7c6.9-4.2,7-14.8,7-14.8l-33.3-30.1l-1.6-45.9c0,0,29.6-32.9,42.9-65.7c10-24.6,4.6-51.4,4.6-51.4s12.8-9.5,27.9-3.6c12.7,5,24.3,23.5,36.7,31.7c14.5,9.6,28.9,8.4,28.9,8.4s-2.3,18.6-1.5,33.5c0.7,12.5,4.6,21.9,4.6,21.9s10.8,7.7,16.6,19.6c6.7,13.8,9.2,33,21.4,46.3c8.6,9.4,19.5,8.8,28.2,13.8c13.9,7.9,24,18.5,24,18.5s11.9,17.3,11.9,37.7c0,14.1-12.5,27.6-15.4,40c-3.1,13.4,3.5,25.2,3.5,25.2s13.3-0.2,21.4,3.4c12.3,5.5,21.4,15.6,21.4,15.6s15.2-11,31.7-12.3c15.1-1.1,31.6,7.5,31.6,7.5s10.7-0.7,16.4-6.6c5-5.1,4.7-15.2,10.4-18.9c10.5-6.9,19.1-4.6,19.1-4.6s11.4-12.6,5.5-24.2c-4.2-8.3-16.5-11.7-24.1-19c-9.8-9.4-14.7-21.7-14.7-21.7l17.4-20.6c0,0,14.1,7.1,25.8,8.7c11.2,1.6,20.1-2.3,20.1-2.3l1.6-11.1c0,0-23.5-40.8-27-98.3c-2.6-42.1,14.8-89.6,17.2-129.9c2.8-46-9.3-82.2-9.3-82.2s6-13,25.1-16.1c28.5-4.5,122.3,24,163.5,20c52.7-5,50.6-42,50.6-42s-15.6,8.8-32.9-0.7c-21.2-11.7-44.7-42.1-44.7-42.1s21.8-12.5,57.4-0.8c26.3,8.7,39.2,43.6,39.2,43.6s26-21.7,26.7-50.6C990.8,362.4,966.5,316.3,966.5,316.3z M590.5,694l-6.9-57.8l22.4-6.9l4.3,82L590.5,694z"/></g></g>
</svg>