<svg id="Layer_1" xmlns="http://www.w3.org/2000/svg" viewBox="0 0 70 70"><style>.st0{fill:#092e20}.st1{fill:#fff}</style><circle class="st0" cx="35" cy="35" r="35"/><path class="st1" d="M20.4 38.2c0 4.7 3.4 7.5 8.9 6.2V32c-5.5-1.7-8.8 1.7-8.9 6.2m9.1-24.3h7.6v35.9c-7.3 1.2-14.2 2-19.2-.8-6.4-3.6-6.9-15-1.9-20 2.6-2.6 7.8-4.4 13.3-3.2V14.4c0-.2 0-.4.2-.5m20 8h-7.6V14h7.6v7.9z"/><path class="st1" d="M49.6 26v16.4c-.3 6.7-.2 12-2.7 15.2-.5.6-1.5 1.5-2.4 2.2-.7.5-2.1 1.6-2.9 1.7-.8 0-2.8-1.1-3.7-1.5-1.2-.6-2.3-1.3-3.5-1.7 2.9-1.8 5.6-3.1 6.7-6.7 1-3.1.8-7.7.8-12.1V26.2l7.7-.2z"/></svg>