<svg id="Mark_s_List" data-name="Mark's List" xmlns="http://www.w3.org/2000/svg" viewBox="0 0 100 100"><defs><style>.cls-1,.cls-2{fill:none}.cls-14,.cls-2{clip-path:url(#clip-path)}.cls-3{clip-path:url(#clip-path-2)}.cls-4{fill:#557ebf}.cls-5{fill:url(#linear-gradient)}.cls-6{fill:url(#linear-gradient-2)}.cls-7{fill:#2c3279}.cls-20,.cls-7{fill-opacity:.1}.cls-8{fill:#ffcf41}.cls-9{fill:url(#linear-gradient-3)}.cls-10{fill:#dc4536}.cls-11{fill:url(#linear-gradient-4)}.cls-12{fill:url(#linear-gradient-5)}.cls-13{fill:#3e2823}.cls-13,.cls-18,.cls-19{fill-opacity:.05}.cls-15{fill:#eeedee}.cls-16{clip-path:url(#clip-path-6)}.cls-17,.cls-22{fill:#fff}.cls-17{fill-opacity:.4}.cls-18,.cls-20{fill:#272626}.cls-19{fill:#bf3b27}.cls-21{fill:url(#linear-gradient-6)}.cls-22{fill-opacity:.2}.cls-23{fill:url(#radial-gradient)}</style><clipPath id="clip-path"><path class="cls-1" d="M85.8 23.4H34.7L80.6 50 54.9 94.5h16.8a6.4 6.4 0 0 0 5.8-3.5l21.6-37.8a6.8 6.8 0 0 0 0-6.6z"/></clipPath><clipPath id="clip-path-2"><path class="cls-1" d="M99.1 46.5L85.8 23.1 77.5 8.7a6.9 6.9 0 0 0-5.8-3.2H28.3A6.4 6.4 0 0 0 22.5 9L9.2 32.4.9 46.8a6.8 6.8 0 0 0 0 6.6L22.5 91a6.9 6.9 0 0 0 5.8 3.5h43.4a6.4 6.4 0 0 0 5.8-3.5l21.6-37.8a6.8 6.8 0 0 0 0-6.7zM49.7 63.3A13.3 13.3 0 1 1 63 50a13.3 13.3 0 0 1-13.3 13.3z"/></clipPath><linearGradient id="linear-gradient" x1="-75.65" y1="-194.12" x2="-53.52" y2="-181.32" gradientTransform="matrix(1 0 0 -1 94 -146)" gradientUnits="userSpaceOnUse"><stop offset="0" stop-color="#2c3279" stop-opacity=".2"/><stop offset=".66" stop-color="#2c3279" stop-opacity="0"/></linearGradient><linearGradient id="linear-gradient-2" x1="-86.83" y1="-180.19" x2="-73.78" y2="-193.25" gradientTransform="matrix(1 0 0 -1 94 -146)" gradientUnits="userSpaceOnUse"><stop offset="0" stop-color="#2c3279" stop-opacity=".2"/><stop offset="1" stop-color="#2c3279" stop-opacity=".04"/></linearGradient><linearGradient id="linear-gradient-3" x1="-29.56" y1="-224.49" x2="-51.48" y2="-211.65" gradientTransform="matrix(1 0 0 -1 94 -146)" gradientUnits="userSpaceOnUse"><stop offset="0" stop-color="#bf3b27" stop-opacity=".15"/><stop offset=".66" stop-color="#bf3b27" stop-opacity="0"/></linearGradient><linearGradient id="linear-gradient-4" x1="-26.66" y1="-170" x2="-26.66" y2="-195.43" gradientTransform="matrix(1 0 0 -1 94 -146)" gradientUnits="userSpaceOnUse"><stop offset="0" stop-color="#a62923" stop-opacity=".2"/><stop offset=".66" stop-color="#a62923" stop-opacity="0"/></linearGradient><linearGradient id="linear-gradient-5" x1="-43.5" y1="-195.2" x2="-10.81" y2="-227.89" gradientTransform="matrix(1 0 0 -1 94 -146)" gradientUnits="userSpaceOnUse"><stop offset="0" stop-color="#3e2823" stop-opacity=".15"/><stop offset="1" stop-color="#3e2823" stop-opacity="0"/></linearGradient><clipPath id="clip-path-6"><path class="cls-1" d="M34.7 76.6L9.2 32.4.9 46.8a6.8 6.8 0 0 0 0 6.6L22.5 91a6.9 6.9 0 0 0 5.8 3.5h26.9L80.9 50z"/></clipPath><linearGradient id="linear-gradient-6" x1="-44" y1="-222.64" x2="-44" y2="-240.33" gradientTransform="matrix(1 0 0 -1 94 -146)" gradientUnits="userSpaceOnUse"><stop offset="0" stop-color="#3e2823" stop-opacity=".15"/><stop offset=".04" stop-color="#472924" stop-opacity=".14"/><stop offset=".25" stop-color="#722f24" stop-opacity=".11"/><stop offset=".46" stop-color="#933426" stop-opacity=".08"/><stop offset=".66" stop-color="#ab3926" stop-opacity=".05"/><stop offset=".85" stop-color="#ba3a27" stop-opacity=".02"/><stop offset="1" stop-color="#bf3b27" stop-opacity="0"/></linearGradient><radialGradient id="radial-gradient" cx="-246.64" cy="986.62" r="99.91" gradientTransform="matrix(.01 0 0 -.01 2306.62 -4813.66)" gradientUnits="userSpaceOnUse"><stop offset="0" stop-color="#fff" stop-opacity=".1"/><stop offset="1" stop-color="#fff" stop-opacity="0"/></radialGradient></defs><title>SVG Icon</title><g id="Google_Cloud_Datastore" data-name="Google Cloud Datastore"><g class="cls-3"><path class="cls-4" d="M34.7 23.4h51.1L77.5 9a6.6 6.6 0 0 0-5.8-3.5H28.3A6.4 6.4 0 0 0 22.5 9L9.2 32.4l25.5 44.2z"/><path class="cls-5" d="M34.7 23.4h51.1L77.5 9a6.6 6.6 0 0 0-5.8-3.5H28.3A6.4 6.4 0 0 0 22.5 9L9.2 32.4l25.5 44.2z"/><path class="cls-6" d="M9.2 32.4l13.1 12.7-2.4 6.1L9.2 32.4z"/><path class="cls-7" d="M20.5 50.9l-9.8-17.1-1.5-1.4 10.7 18.8.6-.3z"/><path class="cls-8" d="M34.7 76.6L9.2 32.4.9 46.8a6.8 6.8 0 0 0 0 6.6L22.5 91a6.9 6.9 0 0 0 5.8 3.5h26.9L80.9 50z"/><path class="cls-9" d="M34.7 76.6L9.2 32.4.9 46.8a6.8 6.8 0 0 0 0 6.6L22.5 91a6.9 6.9 0 0 0 5.8 3.5h26.9L80.9 50z"/><path class="cls-10" d="M85.8 23.4H34.7L80.6 50 54.9 94.5h16.8a6.4 6.4 0 0 0 5.8-3.5l21.6-37.8a6.8 6.8 0 0 0 0-6.6z"/><path class="cls-11" d="M85.8 23.4H34.7L80.6 50 54.9 94.5h16.8a6.4 6.4 0 0 0 5.8-3.5l21.6-37.8a6.8 6.8 0 0 0 0-6.6z"/><path class="cls-12" d="M65.3 23.4L100 58.1v36.4H55.2l10.1-17.9V23.4z"/><path class="cls-13" d="M65 23.4h21.7v.58H65z"/></g><g class="cls-3"><g class="cls-14"><path class="cls-15" d="M65.3 23.4L80.6 50 65.3 76.6H34.7L19.4 50l15.3-26.6h30.6"/><path class="cls-4" d="M34.7 23.4h51.1L77.5 9a6.6 6.6 0 0 0-5.8-3.5H28.3A6.4 6.4 0 0 0 22.5 9L9.2 32.4l25.5 44.2z"/></g><g class="cls-3"><g class="cls-16"><path class="cls-15" d="M65.3 23.4L80.6 50 65.3 76.6H34.7L19.4 50l15.3-26.6h30.6"/></g><g class="cls-3"><path class="cls-15" d="M65.3 23.4L80.6 50 65.3 76.6H34.7L19.4 50l15.3-26.6h30.6"/><path class="cls-17" d="M65.3 24l15 26h.6L65.3 23.4H34.7L19.4 50h.3l15-26h30.6z"/><path class="cls-18" d="M80.3 50l-15 26H34.7l-15-26h-.3l15.3 26.6h30.6L80.9 50h-.6z"/><path class="cls-19" d="M80.9 50L65.3 76.6H34.7L19.4 50v.6l15.3 26.6h30.6l15.6-26.6V50z"/><path class="cls-20" d="M49.7 36.1a13.4 13.4 0 0 0-13.3 13.3H63c.3-7.2-5.8-13.3-13.3-13.3zM36.4 50.6a13.3 13.3 0 1 0 26.6 0z"/></g><g class="cls-3"><path class="cls-21" d="M34.7 76.6l17.9 17.9h2.6l10.1-17.9H34.7z"/></g><g class="cls-3"><path class="cls-22" d="M9.2 32.9L22.5 9.5A6.9 6.9 0 0 1 28.3 6h43.4a6.4 6.4 0 0 1 5.8 3.5L85.8 24l13.3 23.4a5.8 5.8 0 0 1 .9 3.2 6.9 6.9 0 0 0-.9-3.5L85.8 23.7 77.5 9.2a6.3 6.3 0 0 0-5.8-3.8H28.3A6.4 6.4 0 0 0 22.5 9L9.2 32.4.9 46.8a7.7 7.7 0 0 0-.9 3.5 6.6 6.6 0 0 1 .9-3.2zm19.1 61a6.4 6.4 0 0 1-5.8-3.5L9.2 67.1.9 52.6a5.8 5.8 0 0 1-.9-3.2 6.9 6.9 0 0 0 .9 3.5l8.3 14.4L22.5 91a6.9 6.9 0 0 0 5.8 3.5h26.9l.3-.6zM100 49.7a6.6 6.6 0 0 1-.9 3.2L85.8 76.3l-8.3 14.5a6.9 6.9 0 0 1-5.8 3.5H55.5l-.3.6h16.5a6.4 6.4 0 0 0 5.8-3.5l8.4-14.5 13.2-23.4a8.9 8.9 0 0 0 .9-3.8z"/></g><path class="cls-23" d="M99.1 46.5L85.8 23.1 77.5 8.7a6.9 6.9 0 0 0-5.8-3.2H28.3A6.4 6.4 0 0 0 22.5 9L9.2 32.4.9 46.8a6.8 6.8 0 0 0 0 6.6L22.5 91a6.9 6.9 0 0 0 5.8 3.5h43.4a6.4 6.4 0 0 0 5.8-3.5l21.6-37.8a6.8 6.8 0 0 0 0-6.7zM49.7 63.3A13.3 13.3 0 1 1 63 50a13.3 13.3 0 0 1-13.3 13.3z"/><path class="cls-1" d="M0-3.5h100v106.65H0z"/></g></g></g></svg>