<svg xmlns="http://www.w3.org/2000/svg" width="396.851" height="396.851" viewBox="0 0 396.851 396.851"><path fill="#74CDDC" stroke="#000" stroke-width="1.9" stroke-miterlimit="10" d="M306.994 72.807s8.089-.438 16.18-9.619c0 0 6.995-5.902 4.589-19.895 0 0-1.971-8.236-10.131-15.522 0 0-7.721-7.139-18.36-5.538 0 0-7.723-.728-16.178 6.122 0 0-6.924 6.63-4.739 13.189 0 0 2.406 14.428 8.089 19.02-.001 0 8.744 11.806 20.55 12.243z"/><path fill="#74CDDC" stroke="#060706" stroke-width="1.9" stroke-miterlimit="10" d="M85.896 76.743s-12.825-3.646-17.634-15.304c0 0-4.955-13.991 6.413-25.504 0 0 6.851-8.6 18.364-9.037 0 0 10.493-1.457 18.947 5.539 0 0 7.58 8.326 2.333 19.32 0 0-9.62 19.595-15.596 23.237 0-.001-6.852 2.185-12.827 1.749z"/><path fill="#070909" d="M299.562 37.609s6.449-.219 8.089 8.198c0 0 1.201 3.935-3.498 7.652 0 0-8.854 4.154-10.932-5.356 0 0-1.311-3.28-.982-7.324-.001 0 1.529-3.716 7.323-3.17zM100.399 46.901s-6.996-5.575-13.445-2.515c0 0-7.542 5.465-3.388 12.462 0 0 2.514 3.607 6.996 5.028 0 0 4.81 1.749 8.198.546-.001 0 6.042-13.084 1.639-15.521z"/><path fill="#F7D3A2" stroke="#000" stroke-width="1.9" stroke-miterlimit="10" d="M317.926 194.505s15.883-1.454 24.192 11.37c0 0 2.773 10.495-7.14 4.371 0 0 5.971 2.621 4.952 4.954 0 0-.874 5.685-8.598 4.373 0 0-11.515-4.516-15.302-9.471.001.001-6.994-13.704 1.896-15.597zM66.731 211.303s-5.927 5.574-7.324 0c0 0-1.313-4.919 5.793-10.057 0 0 8.854-5.465 14.867-5.028 0 0 9.947-.713 12.68 1.883 0 0 1.53 11.888-1.531 15.061l-6.23.616s-4.7 1.896-7.105 3.538c0 0-4.154 3.278-8.636 3.715 0 0-3.826 1.095-5.684-1.639 0 0-2.187-1.969-1.749-4.921M288.341 353.516s10.203 5.541 17.198 16.761c0 0 6.126 9.62-2.913 15.157 0 0-6.702 7.143-15.304-1.311 0 0-7.871-9.767-10.204-11.807 0 0-6.848-4.956-9.181-5.684.001.001.581-18.511 20.404-13.116zM139.095 372.61s-10.348.585-18.218 7.581c0 0-5.246 4.228-8.163 6.268 0 0-9.764 9.182-15.303 2.187l-1.167-2.334s-2.842.949-4.08-2.405c0 0-3.791-6.997 2.987-14.067 0 0 6.704-6.555 9.983-8.084 0 0 4.81-3.649 6.34-4.229 0 0 6.777-.513 13.847 4.444 0-.001 12.533 6.485 13.774 10.639z"/><path fill="none" stroke="#000" stroke-width="1.9" stroke-miterlimit="10" d="M296.173 373.192s3.17 1.916 6.559 12.569"/><path fill="none" stroke="#020303" stroke-width="1.9" stroke-miterlimit="10" d="M102.221 374.797s-2.573 4.372-3.821 5.757c0 0-3.525 4.992-1.249 7.349"/><g><path fill="#74CDDC" stroke="#000" stroke-width="1.9" stroke-miterlimit="10" d="M86.188 195.452s-3.061-48.752-4.154-59.026c0 0-3.499-39.57 5.466-63.837 0 0 5.684-24.485 26.453-42.412 0 0 33.23-27.546 95.975-25.141 0 0 66.242-1.531 89.415 41.756 0 0 11.369 17.49 14.867 48.753 0 0 3.934 35.635 3.278 49.626 0 0 .438 46.856.728 51.813 0 0 4.302 71.706 2.552 76.734 0 0-.875 36.074-14.209 60.778 0 0-15.086 40.828-83.515 49.408 0 0-42.63 6.777-85.917-9.184 0 0-22.518-10.492-31.044-19.895 0 0-18.582-15.521-23.174-56.623 0 0-1.53-22.517-.218-43.504 0 0 3.28-38.041 3.28-42.194l.217-17.052z"/></g><g><path fill="#FFF" stroke="#030403" stroke-width="1.9" stroke-miterlimit="10" d="M119.856 43.804s16.471-22.301 46.494-11.66c0 0 22.299 7.288 19.676 35.708 0 0-1.312 22.154-29.005 27.837 0 0-19.384 3.935-32.501-7.579 0 0-16.033-13.41-9.182-35.417 0 .001 1.31-4.226 4.518-8.889z"/><path fill="#FFF" stroke="#000" stroke-width="1.9" stroke-miterlimit="10" d="M207.575 46.266s10.796-25.276 44.199-20.016c0 0 25.962 4.236 25.669 35.211 0 0 1.313 20.454-24.506 29.513 0 0-21.584 7.597-38.509-7.453.001.001-17.355-14.609-6.853-37.255z"/><path fill="#030403" d="M233.417 61.732c0 6.439-4.774 11.658-10.656 11.658-5.881 0-10.651-5.219-10.651-11.658 0-6.442 4.771-11.662 10.651-11.662 5.882 0 10.656 5.22 10.656 11.662zM143.139 64.656c0 6.515-4.873 11.796-10.879 11.796-6.003 0-10.874-5.281-10.874-11.796 0-6.517 4.87-11.798 10.874-11.798 6.006 0 10.879 5.281 10.879 11.798z"/><path fill="#FFF" d="M230.04 64.39c0 1.689-1.128 3.061-2.514 3.061-1.388 0-2.515-1.371-2.515-3.061 0-1.689 1.127-3.061 2.515-3.061 1.386.001 2.514 1.372 2.514 3.061z"/><ellipse fill="#FFF" cx="137.118" cy="67.396" rx="2.524" ry="3.006"/><path fill="#FFF" stroke="#000" stroke-width="1.9" stroke-miterlimit="10" d="M213.424 114.782s.292 14.866.729 18.365c0 0 .037 6.777-3.897 7.65l-4.154 1.531s-6.56-1.967-7.979-7.104c0 0-.656-16.179.984-22.3-.001 0 12.35-6.012 14.317 1.858z"/><path fill="#FFF" stroke="#000" stroke-width="1.9" stroke-miterlimit="10" d="M184.458 113.798s-5.246 5.575-2.624 19.676c0 0 2.515 7.652 6.559 8.198 0 0 3.169.765 7.434-3.389 0 0 1.748-2.406 2.186-3.06 0 0-.984-16.397 1.749-22.736 0 0-12.243-2.297-15.304 1.311z"/><path fill="#F7D3A2" stroke="#221D1E" stroke-width="1.9" stroke-miterlimit="10" d="M175.058 100.682s-8.09 8.525-.874 17.489c0 0 4.481 4.701 13.444.875 0 0 10.167-4.372 14.429-3.17 0 0 6.777 1.311 10.276 3.607 0 0 8.634 3.935 13.116-1.202 0 0 5.574-4.591 2.077-12.243 0 0-4.918-7.542-14.647-10.493 0 0-25.797-2.187-31.591 1.203 0-.001-5.076 2.454-6.23 3.934z"/><path fill="#070909" d="M183.146 96.855s-2.733-12.789 16.505-13.882c0 0 12.681-.438 15.085 8.745 0 0 2.514 7.979-12.462 10.602.001 0-15.739 2.842-19.128-5.465z"/></g><g><path fill="#070909" d="M296.173 374.143c1.226 0 1.226-1.9 0-1.9s-1.226 1.9 0 1.9zM102.038 375.403c.387 0 .387-.6 0-.6s-.387.6 0 .6z"/></g></svg>