<svg xmlns="http://www.w3.org/2000/svg" width="512" height="512" viewBox="0 0 512 512"><g fill="#008cdb"><path d="M495.95 199.224c-1.897-11.278-2.895-22.655-5.59-33.833-2.194-9.082-4.69-20.359-11.077-27.544-5.589-6.288-17.165-11.776-25.35-7.285-4.491 2.495-6.986 6.985-9.781 10.978-3.592 5.09-8.881 8.483-13.771 12.276-4.291-6.986-7.685-13.973-13.172-20.16-6.388-7.085-14.074-11.477-21.758-16.966-16.267-11.776-30.239-27.146-48.103-36.626-33.135-17.565-80.938-5.39-108.882 17.465-6.786 5.589-12.774 12.075-17.965 19.161-2.394 3.293-5.787 3.992-9.38 5.19-5.189 1.796-9.881 4.491-14.073 7.984-7.085 5.788-12.374 13.972-21.655 15.968-10.38 2.195-20.759 3.892-30.938 6.986-18.662 5.588-36.327 14.57-50.997 27.444-7.386 6.587-14.072 13.972-19.761 22.056-5.488 7.785-10.979 18.164-19.561 23.154 3.593-7.685 6.088-15.768 7.186-24.251.398-2.794.498-5.489.698-8.283.199-3.193 2.495-8.284 1.796-11.078-.599-2.694 0-1.098-1.996-1.996-5.389.1-10.777.599-16.067 1.796-8.084 1.796-16.068 5.289-21.557 11.677-17.564 20.458-6.088 74.45 26.647 72.155-.799 6.587-.699 13.074.398 19.661 1.098 6.487 3.593 13.174 1.397 19.66-2.196 6.388-4.891 12.774-10.479 16.967-5.09 3.892-12.675 10.278-14.072 16.766-5.39 25.849 26.847 51.397 49.602 53.393-4.891 13.174-7.086 25.149 8.482 31.138 14.471 5.588 31.137 9.581 46.606 11.177 14.072 1.397 23.553-5.189 24.95-19.461.599-6.786.1-12.974 4.489-18.763 4.892-6.387 8.084-13.971 7.087-22.155h16.168c-8.783 9.182-2.595 22.355 2.095 32.036 5.19 10.678 12.476 20.259 21.559 27.844 9.68 8.083 23.353 8.782 33.832 1.496 10.379-7.185 15.169-20.857 27.344-26.346 4.991-2.296 9.979-.799 15.069-.1 6.089.798 12.275.897 18.364.798 11.876-.2 26.746 1.098 32.832-11.677 2.896-6.088 2.297-13.174-.299-19.36-2.595-6.089-1.296-12.875-1.796-19.262-.998-14.271-5.888-25.849-10.777-38.922 8.981 7.285 16.467 16.566 28.842 17.864 12.176 1.298 24.451-4.091 32.734-12.874 3.692-3.893 6.586-8.583 8.283-13.673l2.395-7.784c4.093.399 8.084.798 12.177 1.097 14.071.999 28.441-.698 41.416-6.586 38.724-17.566 47.209-61.079 46.409-99.202zM284.774 394.432c14.371-16.966 23.652-37.324 30.039-58.482 3.394 7.584 5.188 15.868 5.589 24.151.499 9.381 1.598 17.565 3.095 26.746 2.395 13.673-31.537 8.882-38.723 7.585 13.273-15.768 1.597.299 0 0zM416.21 290.939c-23.853 0-46.907-8.283-67.963-18.562-.6 13.873-10.181 34.63 7.284 42.415 9.481 4.491 16.566-4.491 20.659-11.776 2.296-4.092 1.995-5.09 6.786-3.593 2.096 1.996-2.895 11.077-4.191 13.174-4.392 6.985-12.774 12.375-21.157 12.375-11.577 0-19.46-10.479-27.646-17.166-8.783-7.185-18.264-10.18-28.144-15.17-6.886-3.493-13.473-7.784-20.259-11.576 3.194 4.99 5.787 9.68 10.28 13.673 3.292 2.994 17.265 10.778 16.566 15.967-2.795 20.858-12.077 43.114-23.254 60.779-5.987 9.48-12.774 16.467-21.558 23.453-4.89 3.892-9.879 7.684-14.769 11.576-5.189 4.092-8.384 8.683-12.675 13.473-8.483 9.182-17.065 3.992-23.354-4.291-3.193-4.192-6.088-8.483-8.684-12.975-2.494-4.091-7.484-10.279-7.383-15.368.098-4.99 9.779-8.683 13.571-10.979 4.69-2.894 9.282-5.789 13.973-8.582 1.796-1.099.498-10.28.498-12.276 0-1.497.699-3.993-.997-3.993-2.996 0-7.286-.199-8.085 3.493-1.696 6.986-24.65 5.189-30.337 5.09-6.389-.1-12.777-.698-19.062-1.696-3.395-.998-3.096-9.78-8.583-6.387-5.788 3.593-1.298 22.255-3.194 28.243-3.293 10.679-11.976 17.564-12.374 29.54-.2 6.288-.101 9.182-7.485 9.182-9.281 0-18.464-1.796-27.346-4.391-4.391-1.298-15.768-2.795-17.165-8.284-1.497-5.588 2.694-13.872 3.992-19.261 1.495-6.087 5.289-15.169 3.095-21.257-2.796-7.784-8.784-14.97-12.676-22.255-7.485-14.172-13.574-29.141-17.065-44.81-7.086-32.036.498-65.967 20.657-91.816 20.36-26.147 48.403-38.423 80.14-44.61-19.261 22.455-59.181 60.778-34.131 91.417 4.19 5.089 14.171 16.566 13.372 23.553-.697 6.287-5.888 14.57-2.693 20.958 2.993 6.187 10.979 12.175 16.366 16.067 7.086 5.29 15.67 8.184 24.552 7.485 17.963-1.397 33.433-15.37 50.198-21.058 7.086-2.395 18.661-2.994 24.352-7.884 5.389-4.591 6.586-16.368 7.584-22.854 3.193-20.16-.798-39.919-3.593-59.88-2.096-14.471-3.892-28.842-7.284-43.014-4.192 16.966-6.787 33.333-4.791 50.898 1.298 10.978 2.894 21.956 3.595 32.934.298 5.09.298 9.98-.701 15.069-.797 3.893-1.695 13.474-4.89 16.069-2.993 2.495-9.58 2.495-13.374 3.692-5.288 1.697-10.378 3.992-15.367 6.487-9.581 4.791-18.862 11.776-29.143 14.97-9.979 3.093-20.259.1-27.744-6.986-7.085-6.687-8.483-11.777-4.092-20.56 6.985-18.063-18.862-28.941-21.855-45.209-1.697-8.982 5.987-19.86 10.379-27.245 4.689-7.984 10.279-15.07 16.566-21.757 8.084-8.682 16.067-17.664 23.952-26.546 6.585-7.485 13.074-16.966 21.557-22.255 8.084-4.99 16.864-4.192 25.747-6.088 3.194-.699 5.29-2.396 4.692-5.988-.5-3.293-4.692-2.794-7.086-2.694 15.968-21.357 46.108-33.932 72.354-35.928 11.777-.898 24.352.299 34.631 6.487 14.172 8.483 26.846 19.76 39.92 29.84-3.394 1.596-6.887 3.093-10.279 4.69 7.085.399 14.271.399 20.858 3.293 10.079 4.491 16.466 13.873 21.456 23.354-9.081-.998-18.763 6.387-27.444 8.882 3.194.998 6.287 1.996 9.48 3.093.301 3.493.598 6.986.898 10.479 3.094-3.692 4.69-6.786 9.88-7.585 7.784-1.297 9.781 5.689 9.881 12.176-11.276-.199-22.954.2-28.442 11.776-3.394 7.285-4.791 15.669-6.388 23.453 4.291-5.589 8.084-12.076 12.974-17.166 3.893-3.992 8.98-5.987 14.571-6.387 1.896-.1 8.683-.998 8.683 1.297 0 2.894-.2 5.788-.399 8.682-.199 2.994-2.295 23.254 1.197 23.154 7.784 0 9.38-26.646 9.78-31.437.399-5.788.699-11.776-.201-17.564-.597-3.893-.597-6.886 3.096-8.982 5.488-3.093 10.878-5.389 15.967-9.48 4.892-3.893 8.084-9.98 13.075-13.374 6.586-4.391 10.278 5.39 12.075 10.08 2.096 5.489-8.483 13.373-12.575 17.066-8.582 7.784-17.863 6.886-28.442 5.688 5.588 3.493 11.276 7.983 18.263 7.983 11.278 0 21.556-9.58 26.248-19.261 6.887 27.545 9.581 58.981-1.797 85.728-10.377 24.153-30.937 39.023-57.583 39.023zM44.556 204.313c0 4.391-.1 8.782-1.097 13.174-.999 3.992-5.49 7.685-4.99 11.876.398 2.994 3.194 7.984 5.589 9.681 4.791 3.393 11.376-.898 15.868-2.894-2.096 8.482-2.195 17.065-12.874 15.968-9.581-.899-15.27-8.284-17.565-17.066-3.493-12.874-3.792-38.323 15.369-39.121-.3 2.794-.3 5.588-.3 8.382 0 3.893 0-2.794 0 0zm32.237 172.055c-10.28 0-22.357-10.978-27.944-18.663-2.994-4.191-7.686-12.474-4.293-17.665 4.492-6.786 12.476-11.177 17.066-18.163 3.394 9.979 7.685 19.66 12.675 29.041 2.694 5.391 17.864 25.45 2.496 25.45z"/><path d="M370.602 181.56c-2.794 0-5.888.898-8.584-.2-3.093-1.198-5.487-6.288-7.284-8.982-2.395-3.493 3.992-6.288 6.786-8.583-12.874-.699-24.451.799-34.729 9.381-9.382 7.884-15.669 18.663-22.157 28.843 5.19-2.794 10.38-5.489 15.57-8.283 1.397 3.393 3.394 6.686 5.688 9.58 2.794-.998 3.392-2.096 1.896-4.292-2.096-3.692-2.396-8.583-.699-12.475 3.893-8.782 10.278 3.094 12.076 7.187-4.191 4.49-9.98 9.281-12.476 14.969-1.396 3.194-.798 7.385-.698 10.778 15.469-17.065 33.533-27.844 54.49-37.025-3.293-.2-6.585-.898-9.879-.898zm-112.973-40.02c.299-3.194-2.396-2.096-4.69-1.796-5.89.699-11.776 1.597-17.665 1.896-9.082.499-17.064 1.796-22.754 9.78-6.587 9.381-9.382 22.355-13.174 33.133-2.196 6.487-2.994 12.375-3.693 19.162 3.095-5.289 6.188-10.679 8.982-16.067 4.99-9.88 8.184-21.258 16.666-28.843 4.492-3.992 9.781-6.087 15.469-7.584 5.091-1.297 9.881-3.393 14.872-4.89 3.991-1.298 6.685-.699 5.987-4.791zm64.869 1.796c2.495-1.597 4.99-3.193 7.586-4.89-8.686 1.197-17.367 2.096-24.452 7.884-9.58 7.784-9.481 17.665-2.694 27.046 2.593-12.875 8.183-22.755 19.56-30.04zM332.578 261c-6.587 7.086-3.893 26.747-4.193 36.028 1.897-7.785 2.995-16.966 6.788-24.052 5.189-9.68 16.367-12.675 25.946-16.367-7.984.199-22.654-1.996-28.541 4.391-2.894 3.193 3.095-3.393 0 0z"/></g></svg>