<?xml version="1.0" encoding="UTF-8" standalone="no"?><!DOCTYPE svg PUBLIC "-//W3C//DTD SVG 1.1//EN" "http://www.w3.org/Graphics/SVG/1.1/DTD/svg11.dtd"><svg width="100%" height="100%" viewBox="0 0 199 185" version="1.1" xmlns="http://www.w3.org/2000/svg" xmlns:xlink="http://www.w3.org/1999/xlink" xml:space="preserve" xmlns:serif="http://www.serif.com/" style="fill-rule:evenodd;clip-rule:evenodd;stroke-linejoin:round;stroke-miterlimit:1.41421;"><path d="M59.451,8.978c14.879,0.07 29.437,7.355 38.4,19.262c10.45,13.884 12.713,33.572 4.978,49.742c-6.474,13.531 -19.549,23.743 -34.411,26.594c-15.046,2.886 -31.362,-1.879 -42.498,-12.561c-13.044,-12.512 -18.247,-32.589 -12.367,-50.129c4.222,-12.593 13.897,-23.258 26.032,-28.704c6.122,-2.747 12.806,-4.172 19.554,-4.204c0.104,-0.001 0.208,-0.001 0.312,0Zm-0.302,2.975c-18.699,0.089 -36.6,12.648 -42.73,30.747c-4.61,13.612 -2.264,29.338 6.213,41.031c8.335,11.497 22.307,18.733 36.663,18.733c14.19,0 28.225,-7.094 36.663,-18.733c9.666,-13.333 11.349,-31.959 3.701,-46.996c-7.491,-14.726 -23.404,-24.702 -40.218,-24.782c-0.097,0 -0.195,0 -0.292,0Z" style="fill:#fff;fill-rule:nonzero;"/><circle cx="59.295" cy="57.209" r="45.255" style="fill:#342956;"/><path d="M141.283,8.978c14.924,0.071 29.674,7.447 38.66,19.611c10.308,13.953 12.326,33.616 4.655,49.525c-6.496,13.472 -19.554,23.624 -34.347,26.462c-15.043,2.886 -31.354,-1.872 -42.498,-12.561c-12.936,-12.408 -18.256,-32.381 -12.414,-49.989c4.192,-12.633 13.845,-23.354 26.079,-28.844c6.121,-2.747 12.805,-4.172 19.554,-4.204c0.104,-0.001 0.208,-0.001 0.311,0Zm-0.302,2.975c-18.699,0.089 -36.599,12.648 -42.729,30.747c-4.61,13.612 -2.264,29.338 6.212,41.031c8.336,11.497 22.307,18.733 36.664,18.733c14.189,0 28.225,-7.094 36.663,-18.733c9.665,-13.333 11.349,-31.959 3.7,-46.996c-7.49,-14.726 -23.404,-24.702 -40.217,-24.782c-0.098,0 -0.195,0 -0.293,0Z" style="fill:#fff;fill-rule:nonzero;"/><circle cx="141.128" cy="57.209" r="45.255" style="fill:#342956;"/><path d="M101.095,0c21.915,0.105 43.611,8.712 59.596,23.773c13.315,12.545 22.567,29.309 25.964,47.325c4.37,23.173 -1.06,48.005 -14.92,67.243c-12.881,17.88 -32.707,30.646 -54.397,34.806c-21.881,4.198 -45.328,-0.332 -64.04,-12.493c-20.877,-13.567 -35.527,-36.352 -38.993,-61.091c-3.175,-22.66 2.932,-46.416 16.674,-64.672c15.158,-20.137 39.174,-33.285 64.786,-34.748c1.774,-0.101 3.555,-0.146 5.33,-0.143Zm-0.548,5.356c-20.601,0.099 -40.929,8.173 -55.94,22.315c-12.43,11.712 -21.103,27.366 -24.326,44.168c-4.174,21.76 0.898,45.132 13.811,63.17c12.087,16.886 30.777,28.96 51.204,32.878c20.708,3.973 42.899,-0.387 60.526,-11.994c19.364,-12.751 32.953,-33.941 36.194,-57.073c2.961,-21.136 -2.643,-43.32 -15.502,-60.511c-14.766,-19.74 -38.482,-32.369 -63.849,-32.932c-0.705,-0.016 -1.41,-0.022 -2.118,-0.021Z" style="fill:#fff;fill-rule:nonzero;"/><g><path d="M184.259,2.637c1.301,0.222 2.294,1.299 2.365,2.66l0,44.325c-0.071,1.397 -1.198,2.606 -2.543,2.675c-1.265,0.064 -2.503,-0.89 -2.759,-2.136c-0.048,-0.237 -0.042,-0.299 -0.054,-0.539l0,-41.393c-23.169,2.102 -46.295,3.539 -69.851,4.436l-0.389,0.014c-1.045,0.038 -2.815,-0.628 -3.107,-2.161c-0.255,-1.334 0.675,-2.781 1.997,-3.103c0.234,-0.057 0.296,-0.054 0.536,-0.075c22.502,-0.817 45.372,-2.245 67.781,-4.215l0.381,-0.034l0.374,-0.033l4.714,-0.428c0,0 0.255,-0.012 0.555,0.007Z" style="fill:#fff;fill-rule:nonzero;"/><path id="REar" d="M183.946,49.622l0,-44.325l-4.715,0.428c-15.896,1.436 -52.69,3.718 -68.679,4.292" style="fill:#342956;fill-rule:nonzero;"/></g><g><path d="M16.616,2.63c23.132,2.098 46.233,3.618 69.304,4.474l0.377,0.013c2.103,0.184 3.42,2.982 1.776,4.591c-0.389,0.381 -0.893,0.637 -1.43,0.727c-0.238,0.04 -0.3,0.032 -0.54,0.035c-20.508,-0.744 -41.35,-2.061 -62.061,-3.8c-1.663,-0.14 -3.326,-0.29 -4.99,-0.441l0,41.393c-0.012,0.24 -0.006,0.302 -0.055,0.539c-0.428,2.083 -3.799,2.861 -4.965,0.761c-0.219,-0.395 -0.313,-0.842 -0.336,-1.3l0,-44.325c0.074,-1.51 1.306,-2.734 2.92,-2.667Z" style="fill:#fff;fill-rule:nonzero;"/><path id="LEar" d="M86.2,9.794c-15.989,-0.574 -49.215,-2.633 -65.109,-4.069l-4.717,-0.428l0,44.325" style="fill:#342956;fill-rule:nonzero;"/></g><g><path d="M175.619,62.979c8.903,0.089 17.008,6.595 21.015,15.103c4.757,10.099 4.374,21.966 2.204,33.208c-2.703,14.004 -8.34,27.467 -15.888,39.42c-0.33,0.523 -0.724,1.112 -0.724,1.112l-0.259,0.258l-0.335,0.333l-0.326,0.165l-0.422,0.213l-0.36,0.056l-0.468,0.073l-0.36,-0.059l-0.467,-0.075l-0.325,-0.167l-0.42,-0.216l-0.258,-0.259l-0.333,-0.335l-0.165,-0.326l-0.213,-0.422c-4.419,-13.747 -14.999,-24.777 -21.002,-37.395c-3.529,-7.417 -5.817,-15.675 -4.943,-23.852c1.365,-12.781 9.711,-25.785 22.413,-26.777c0.545,-0.042 1.091,-0.06 1.636,-0.058Zm-0.206,5.357c-3.623,0.029 -7.136,1.541 -9.885,3.985c-7.395,6.57 -9.879,17.845 -8.291,26.831c1.58,8.948 6.306,16.931 11.057,24.464c4.279,6.786 8.924,13.357 12.274,20.606l0.01,0.022c8.818,-15.466 15.195,-32.841 14.318,-50.627c-0.467,-9.48 -4.147,-19.396 -12.708,-23.656c-2.098,-1.044 -4.429,-1.63 -6.775,-1.625Z" style="fill:#fff;fill-rule:nonzero;"/><path id="RWing" d="M180.064,150.241c0,0 18.727,-27.778 17.523,-56.421c-1.207,-28.644 -27.88,-37.865 -39.395,-16.262c-15.002,28.168 15.073,51.397 21.872,72.683" style="fill:#342956;fill-rule:nonzero;"/></g><g><path d="M24.953,62.979c9.12,0.075 17.015,7.243 20.921,16.127c3.137,7.133 3.843,15.225 2.116,22.899c-3.733,16.588 -16.594,29.876 -23.299,44.337c-0.712,1.536 -1.35,3.108 -1.867,4.719l-0.214,0.422l-0.23,0.413l-0.268,0.249l-0.347,0.321l-0.331,0.153l-0.429,0.199l-0.363,0.043l-0.469,0.057l-0.358,-0.071l-0.464,-0.092l-0.319,-0.177l-0.413,-0.231l-0.248,-0.267l-0.322,-0.347c-3.421,-5.104 -6.185,-10.583 -8.688,-16.173c-6.041,-13.491 -10.163,-28.274 -9.229,-42.91c0.497,-7.787 2.918,-15.629 8.108,-21.584c4.129,-4.739 10.012,-7.984 16.363,-8.085c0.117,-0.002 0.234,-0.002 0.35,-0.002Zm-0.196,5.357c-4.462,0.044 -8.787,2.335 -11.847,5.554c-5.575,5.865 -7.495,14.376 -7.535,22.29c-0.084,16.846 6.05,33.442 14.385,48.064c5.559,-12.111 14.665,-22.514 19.988,-34.533c3.519,-7.945 5.163,-17.072 2.324,-25.599c-2.296,-6.893 -6.614,-13.617 -13.953,-15.388c-1.1,-0.266 -2.236,-0.393 -3.362,-0.388Z" style="fill:#fff;fill-rule:nonzero;"/><path id="LWing" d="M20.274,150.241c0,0 -18.727,-27.778 -17.522,-56.421c1.206,-28.644 27.88,-37.865 39.394,-16.262c15.002,28.168 -15.073,51.397 -21.872,72.683" style="fill:#342956;fill-rule:nonzero;"/></g><circle id="Body" cx="100.812" cy="87.356" r="84.678" style="fill:#342956;"/><g id="LFoot"><path d="M61.493,154.337c2.809,0.055 5.298,2.484 5.353,5.362c0.04,6.407 0,12.815 0,19.222c-0.018,2.812 -2.437,5.367 -5.353,5.423c-1.211,0.008 -2.42,0.089 -3.526,-0.287c-2.102,-0.716 -3.637,-2.802 -3.68,-5.074c-0.042,-6.408 0,-12.816 0,-19.224c0.018,-2.82 2.425,-5.365 5.352,-5.422c0.618,-0.004 1.236,-0.004 1.854,0Zm-1.776,5.356c-0.037,0 -0.073,0.032 -0.074,0.074c-0.042,6.379 0,12.758 0,19.137c0,0.044 0.028,0.082 0.063,0.084c0.569,0.018 1.139,0 1.709,0c0.037,0 0.073,-0.032 0.075,-0.072c0.121,-6.379 0,-12.76 0,-19.14c0,-0.041 -0.025,-0.08 -0.06,-0.083c-0.57,-0.04 -1.142,0 -1.713,0Z" style="fill:#fff;fill-rule:nonzero;"/><path d="M51.96,154.337c2.544,-0.062 5.357,2.344 5.414,5.362c0.04,6.407 0.001,12.815 0.001,19.222c-0.018,2.822 -2.426,5.367 -5.353,5.423c-1.213,0.008 -2.422,0.089 -3.529,-0.287c-2.101,-0.715 -3.636,-2.801 -3.68,-5.075c-0.04,-6.407 0,-12.815 0,-19.222c0.018,-2.823 2.422,-5.367 5.353,-5.423c0.598,-0.004 1.197,-0.018 1.794,0Zm-1.717,5.356c-0.037,0 -0.073,0.032 -0.074,0.073c-0.039,6.38 0,12.759 0,19.139c0,0.044 0.029,0.082 0.063,0.083c0.57,0.019 1.141,0 1.711,0c0.038,0 0.074,-0.032 0.075,-0.072c0.122,-6.379 0,-12.76 0,-19.139c0,-0.045 -0.029,-0.083 -0.064,-0.084c-0.57,-0.011 -1.14,0 -1.711,0Z" style="fill:#fff;fill-rule:nonzero;"/><path d="M42.548,154.337c2.793,0.053 5.298,2.44 5.353,5.362c0.041,6.407 0,12.815 0,19.223c-0.018,2.818 -2.425,5.366 -5.353,5.422c-1.21,0.008 -2.42,0.09 -3.526,-0.287c-2.105,-0.717 -3.637,-2.802 -3.68,-5.075c-0.04,-6.407 0,-12.815 0,-19.222c0.017,-2.82 2.422,-5.367 5.353,-5.423c0.618,-0.004 1.235,-0.004 1.853,0Zm-1.776,5.356c-0.037,0 -0.073,0.032 -0.074,0.073c-0.04,6.38 0,12.759 0,19.139c0,0.044 0.029,0.082 0.063,0.083c0.569,0.019 1.139,0 1.709,0c0.038,0 0.073,-0.032 0.075,-0.072c0.119,-6.378 0,-12.759 0,-19.139c0,-0.044 -0.029,-0.083 -0.064,-0.084c-0.57,-0.011 -1.139,0 -1.709,0Z" style="fill:#fff;fill-rule:nonzero;"/><path d="M64.168,159.768c0,-1.518 -1.232,-2.754 -2.744,-2.754l-1.715,0c-1.513,0 -2.744,1.236 -2.744,2.754l0,19.145c0,1.518 1.231,2.753 2.744,2.753l1.715,0c1.512,0 2.744,-1.235 2.744,-2.753l0,-19.145Z" style="fill:#d56c45;fill-rule:nonzero;"/><path d="M38.02,178.913c0,1.518 1.231,2.754 2.744,2.754l1.715,0c1.512,0 2.744,-1.236 2.744,-2.754l0,-19.145c0,-1.518 -1.232,-2.753 -2.744,-2.753l-1.715,0c-1.513,0 -2.744,1.235 -2.744,2.753l0,19.145Z" style="fill:#d56c45;fill-rule:nonzero;"/><path d="M51.952,157.015l-1.717,0c-1.512,0 -2.744,1.235 -2.744,2.753l0,19.145c0,1.518 1.232,2.754 2.744,2.754l1.717,0c1.513,0 2.744,-1.236 2.744,-2.754l0,-19.145c0,-1.518 -1.231,-2.753 -2.744,-2.753" style="fill:#d56c45;fill-rule:nonzero;"/></g><g id="RFoot"><path d="M159.61,154.337c2.808,0.055 5.299,2.484 5.352,5.362c0.042,6.407 0,12.815 0,19.223c-0.018,2.822 -2.437,5.366 -5.352,5.422c-1.211,0.008 -2.42,0.089 -3.527,-0.287c-2.102,-0.716 -3.636,-2.801 -3.68,-5.075c-0.038,-6.407 0,-12.815 0,-19.222c0.017,-2.806 2.425,-5.366 5.353,-5.423c0.618,-0.004 1.236,-0.004 1.854,0Zm-1.777,5.356c-0.037,0 -0.072,0.032 -0.074,0.072c-0.121,6.379 0,12.76 0,19.14c0,0.044 0.029,0.082 0.063,0.083c0.57,0.018 1.14,0 1.709,0c0.037,0 0.074,-0.032 0.075,-0.072c0.118,-6.379 0,-12.76 0,-19.139c0,-0.046 -0.027,-0.084 -0.074,-0.084c-0.566,0 -1.132,0 -1.699,0Z" style="fill:#fff;fill-rule:nonzero;"/><path d="M140.664,154.337c2.794,0.053 5.298,2.442 5.353,5.361c0.042,6.408 0,12.816 0,19.224c-0.018,2.812 -2.425,5.366 -5.352,5.422c-1.211,0.008 -2.42,0.09 -3.527,-0.287c-2.104,-0.717 -3.636,-2.801 -3.679,-5.075c-0.039,-6.407 -0.001,-12.815 -0.001,-19.222c0.017,-2.808 2.422,-5.367 5.354,-5.423c0.617,-0.004 1.235,-0.004 1.852,0Zm-1.775,5.356c-0.038,0 -0.073,0.032 -0.074,0.072c-0.122,6.379 -0.001,12.76 0,19.14c0,0.044 0.029,0.082 0.062,0.083c0.57,0.019 1.14,0 1.709,0c0.037,0 0.074,-0.032 0.075,-0.072c0.121,-6.378 0,-12.759 0,-19.139c0,-0.044 -0.029,-0.083 -0.064,-0.084c-0.569,-0.011 -1.139,0 -1.708,0Z" style="fill:#fff;fill-rule:nonzero;"/><path d="M150.077,154.337c2.55,-0.062 5.356,2.321 5.414,5.361c0.041,6.408 0,12.816 0,19.224c-0.018,2.815 -2.425,5.366 -5.353,5.422c-1.212,0.008 -2.422,0.089 -3.528,-0.287c-2.105,-0.716 -3.637,-2.803 -3.68,-5.074c-0.042,-6.408 -0.001,-12.816 -0.001,-19.224c0.019,-2.821 2.423,-5.366 5.354,-5.422c0.598,-0.004 1.196,-0.018 1.794,0Zm-1.717,5.356c-0.039,0 -0.073,0.033 -0.074,0.074c-0.042,6.379 0,12.758 0,19.137c0,0.042 0.025,0.082 0.06,0.084c0.57,0.033 1.143,0 1.714,0c0.038,0 0.073,-0.032 0.075,-0.072c0.121,-6.378 0,-12.759 0,-19.139c0,-0.041 -0.026,-0.081 -0.061,-0.084c-0.57,-0.033 -1.143,0 -1.714,0Z" style="fill:#fff;fill-rule:nonzero;"/><path d="M162.284,159.768c0,-1.518 -1.231,-2.754 -2.744,-2.754l-1.715,0c-1.512,0 -2.744,1.236 -2.744,2.754l0,19.145c0,1.518 1.232,2.753 2.744,2.753l1.715,0c1.513,0 2.744,-1.235 2.744,-2.753l0,-19.145Z" style="fill:#d56c45;fill-rule:nonzero;"/><path d="M136.136,178.913c0,1.518 1.232,2.754 2.745,2.754l1.714,0c1.513,0 2.744,-1.236 2.744,-2.754l0,-19.145c0,-1.518 -1.231,-2.753 -2.744,-2.753l-1.714,0c-1.513,0 -2.745,1.235 -2.745,2.753l0,19.145Z" style="fill:#d56c45;fill-rule:nonzero;"/><path d="M150.069,157.015l-1.717,0c-1.513,0 -2.744,1.235 -2.744,2.753l0,19.145c0,1.518 1.231,2.754 2.744,2.754l1.717,0c1.512,0 2.744,-1.236 2.744,-2.754l0,-19.145c0,-1.518 -1.232,-2.753 -2.744,-2.753" style="fill:#d56c45;fill-rule:nonzero;"/></g><ellipse cx="100.457" cy="85.791" rx="75.137" ry="77.666" style="fill:#4d3e7e;"/><path d="M59.957,71.379l40.211,40.348l39.063,-39.119" style="fill:#d56c45;fill-rule:nonzero;"/><g><circle cx="59.295" cy="57.209" r="45.255" style="fill:#ae92d6;"/><g id="LEye"><circle cx="59.295" cy="57.209" r="37.044" style="fill:#fff;"/><g id="LEye_Pupil"><circle cx="59.388" cy="57.526" r="15.398" style="fill:#0d0d0d;"/><circle cx="55.817" cy="52.186" r="5.951" style="fill:#fff;"/></g></g></g><g><circle cx="141.128" cy="57.209" r="45.255" style="fill:#ae92d6;"/><g id="REye"><circle cx="141.128" cy="57.209" r="37.044" style="fill:#fff;"/><g id="REye_Pupil"><circle cx="141.128" cy="57.209" r="15.398"/><circle cx="144.698" cy="51.868" r="5.951" style="fill:#fff;"/></g></g></g></svg>