<svg viewBox="0 0 128 128" xmlns="http://www.w3.org/2000/svg" fill-rule="evenodd" clip-rule="evenodd" stroke-linejoin="round" stroke-miterlimit="1.414"><path d="M11.809 39.933a5.726 5.726 0 0 0-5.765 5.765 5.726 5.726 0 0 0 5.765 5.766c3.104 0 5.765-2.44 5.765-5.655v-.111c0-3.104-2.55-5.765-5.765-5.765z" fill="none"/><circle cx="97.178" cy="15.985" r="5.765" fill="none"/><path d="M115.583 96.255a5.726 5.726 0 0 0-5.766 5.765 5.726 5.726 0 0 0 5.766 5.765c3.104.111 5.654-2.328 5.765-5.432v-.333c0-3.104-2.55-5.765-5.765-5.765z" fill="none"/><path d="M62.476 61.664c-1.441-.111-2.882.554-3.658 1.663-.887 1.441-1.22 3.215-1.109 4.878 0 4.435 1.663 6.652 4.878 6.652 3.326 0 4.878-2.217 4.878-6.652 0-4.324-1.663-6.541-4.989-6.541z" fill="url(#a)" fill-rule="nonzero"/><path d="M119.907 90.822V71.753c0-2.44-1.996-4.324-4.324-4.324H95.959V53.016h10.865c2.439 4.434 7.983 6.208 12.528 3.769 4.435-2.439 6.209-7.982 3.77-12.528-1.663-2.993-4.768-4.878-8.094-4.878-3.548 0-6.874 1.995-8.426 5.322L96.07 44.59v-.444c0-5.211-4.103-9.424-9.313-9.424H71.235V20.309h14.746c2.439 6.209 9.313 9.202 15.521 6.874 6.209-2.439 9.202-9.313 6.874-15.522-2.439-6.208-9.313-9.202-15.522-6.873-3.104 1.219-5.654 3.658-6.873 6.873h-19.07c-2.439 0-4.324 1.996-4.324 4.324v18.959H44.626c-3.991.111-7.539 2.55-8.758 6.32H23.229c-2.44-6.209-9.313-9.313-15.522-6.874-6.209 2.439-9.313 9.313-6.874 15.521 2.439 6.209 9.313 9.313 15.522 6.874 3.326-1.219 5.876-3.991 6.984-7.317l11.974.111v24.834h-5.1c-2.439-4.434-7.982-6.208-12.528-3.769s-6.209 7.982-3.769 12.528c1.663 2.994 4.767 4.878 8.093 4.878 3.659 0 6.874-2.106 8.426-5.321h4.989v3.326c0 5.211 4.213 9.424 9.313 9.424h3.881v18.737c0 2.439 1.995 4.323 4.324 4.323h10.865c2.439 4.546 7.982 6.209 12.528 3.881s6.209-7.983 3.88-12.528c-2.439-4.546-7.982-6.209-12.528-3.881a9.353 9.353 0 0 0-3.88 3.881h-6.542V95.479h29.492c5.21 0 9.424-4.213 9.424-9.313v-9.979h15.41v14.746c-6.208 2.439-9.202 9.313-6.763 15.522 2.439 6.208 9.313 9.202 15.522 6.763 4.657-1.774 7.65-6.209 7.65-11.198-.443-5.1-3.548-9.313-8.093-11.198zM97.178 10.22a5.726 5.726 0 0 1 5.766 5.765 5.726 5.726 0 0 1-5.766 5.766 5.726 5.726 0 0 1-5.765-5.766c0-3.215 2.661-5.765 5.765-5.765zM11.809 51.464a5.726 5.726 0 0 1-5.765-5.766 5.726 5.726 0 0 1 5.765-5.765 5.726 5.726 0 0 1 5.765 5.765c0 3.105-2.439 5.766-5.654 5.766h-.111zM49.061 77.85h-4.102V52.461h4.102V77.85zm20.067-2.217c-1.773 1.774-4.213 2.772-6.763 2.661-1.663 0-3.326-.333-4.767-1.22-1.33-.776-2.439-1.995-3.215-3.547-.776-1.664-1.109-3.437-1.109-5.322-.111-2.661.665-5.211 2.439-7.318 1.774-1.773 4.213-2.771 6.763-2.66a8.541 8.541 0 0 1 6.542 2.66 10.545 10.545 0 0 1 2.439 7.207c.332 2.772-.555 5.433-2.329 7.539zM90.083 56.12h-7.429v21.841h-4.102V56.12h-7.428v-3.659h19.07l-.111 3.659zm25.5 51.776a5.726 5.726 0 0 1-5.766-5.765 5.726 5.726 0 0 1 5.766-5.765 5.726 5.726 0 0 1 5.765 5.765c.111 3.104-2.328 5.654-5.433 5.765h-.332z" fill="url(#b)" fill-rule="nonzero"/><defs><linearGradient id="a" x2="1" gradientUnits="userSpaceOnUse" gradientTransform="translate(.112 68.275) scale(127.866)"><stop offset="0" stop-color="#78c3e3"/><stop offset="1" stop-color="#83caa7"/></linearGradient><linearGradient id="b" x2="1" gradientUnits="userSpaceOnUse" gradientTransform="translate(.014 63.719) scale(127.964)"><stop offset="0" stop-color="#78c3e3"/><stop offset="1" stop-color="#83caa7"/></linearGradient></defs></svg>