<?xml version="1.0" encoding="UTF-8" standalone="no"?><!DOCTYPE svg PUBLIC "-//W3C//DTD SVG 1.1//EN" "http://www.w3.org/Graphics/SVG/1.1/DTD/svg11.dtd"><svg width="100%" height="100%" viewBox="0 0 64 64" version="1.1" xmlns="http://www.w3.org/2000/svg" xmlns:xlink="http://www.w3.org/1999/xlink" xml:space="preserve" xmlns:serif="http://www.serif.com/" style="fill-rule:evenodd;clip-rule:evenodd;stroke-linejoin:round;stroke-miterlimit:1.41421;"><g><path d="M46.42,13.074c0,0 -21.91,5.47 -11.42,17.53c3.09,3.55 -0.81,6.75 -0.81,6.75c0,0 7.84,-4 4.24,-9.11c-3.43,-4.73 -5.97,-7.07 7.99,-15.17Zm-14.32,3.81c12.95,-10.23 6.3,-16.88 6.3,-16.88c2.68,10.57 -9.46,13.76 -13.84,20.34c-3,4.48 1.46,9.3 7.53,14.77c-2.36,-5.34 -10.38,-10.02 0.01,-18.23Z" style="fill:#e57125;fill-rule:nonzero;"/><path d="M23.6,49.494c-9.84,2.75 6,8.43 18.51,3.06c-1.22,-0.472 -2.398,-1.048 -3.52,-1.72c-4.346,0.992 -8.837,1.181 -13.25,0.56c-4.18,-0.47 -1.74,-1.9 -1.74,-1.9Zm17,-5.36c-5.615,1.222 -11.395,1.499 -17.1,0.82c-4.19,-0.43 -1.45,-2.46 -1.45,-2.46c-10.84,3.6 6,7.68 21.18,3.25c-0.971,-0.353 -1.859,-0.901 -2.61,-1.61l-0.02,0Zm10.95,10.55c0,0 1.81,1.49 -2,2.64c-7.23,2.19 -30.1,2.85 -36.45,0.09c-2.28,-1 2,-2.37 3.35,-2.66c0.722,-0.178 1.465,-0.262 2.21,-0.25c-2.54,-1.79 -16.41,3.51 -7,5c25.49,4.17 46.51,-1.83 39.89,-4.82Zm-8.78,-15.56c0.932,-0.602 1.912,-1.127 2.93,-1.57c1.017,-0.443 -4.83,0.86 -9.65,1.27c-5.115,0.513 -10.265,0.573 -15.39,0.18c-7.51,-1 4.12,-3.77 4.12,-3.77c-3.502,-0.02 -6.958,0.796 -10.08,2.38c-6.56,3.18 16.3,4.62 28.07,1.51Zm2.88,7.77c-0.059,0.118 -0.141,0.224 -0.24,0.31c16.03,-4.2 10.13,-14.85 2.47,-12.2c-0.405,0.158 -0.753,0.433 -1,0.79c0.446,-0.159 0.904,-0.283 1.37,-0.37c3.85,-0.76 9.4,5.23 -2.61,11.47l0.01,0Zm0.43,14.75c-9.642,1.655 -19.482,1.807 -29.17,0.45c-9.689,-1.357 1.47,1.22 9,1.7c11.53,0.74 29.22,-0.41 29.64,-5.86c0.05,0.01 -0.76,2.07 -9.47,3.72l0,-0.01Z" style="fill:#5482a2;fill-rule:nonzero;"/></g></svg>