<?xml version="1.0" encoding="utf-8"?>
<!-- Generator: Adobe Illustrator 18.0.0, SVG Export Plug-In . SVG Version: 6.00 Build 0)  -->
<!DOCTYPE svg PUBLIC "-//W3C//DTD SVG 1.1//EN" "http://www.w3.org/Graphics/SVG/1.1/DTD/svg11.dtd">
<svg version="1.1" id="JIRA_-_Blue" xmlns="http://www.w3.org/2000/svg" xmlns:xlink="http://www.w3.org/1999/xlink" x="0px"
	 y="0px" viewBox="0 0 300 300" enable-background="new 0 0 300 300" xml:space="preserve">
<g>
	<g>
		<g>
			<g>
				<g>
					<path fill="#205081" d="M87.4,22.2c-10.5,0-19,8.5-19,19.1c0,10.5,8.5,19.1,19,19.1c10.5,0,19-8.5,19-19.1
						C106.5,30.7,98,22.2,87.4,22.2L87.4,22.2L87.4,22.2z"/>
				</g>
			</g>
			<g>
				<g>
					<path fill="#205081" d="M212.5,22.2c-10.5,0-19,8.5-19,19.1c0,10.5,8.5,19.1,19,19.1c10.5,0,19-8.5,19-19.1
						C231.6,30.7,223,22.2,212.5,22.2L212.5,22.2L212.5,22.2z"/>
				</g>
			</g>
		</g>
		<g>
			<g>
				<path fill="#205081" d="M150,4.8c-10.5,0-19,8.5-19,19.1c0,10.5,8.5,19.1,19,19.1c10.5,0,19-8.5,19-19.1
					C169,13.3,160.5,4.8,150,4.8L150,4.8L150,4.8z"/>
			</g>
		</g>
	</g>
	<g>
		<path fill="#205081" d="M257.6,75.3c-1.1-0.8-2.3-1.2-3.6-1.2c-0.7,0-1.4,0.1-2.1,0.4c-12.9,4.9-26,8.7-37.9,11.5
			c-2.4,0.6-4.4,2.4-5.2,4.6c-8.7,23.8-30.9,46.6-54.3,70.3c-0.9,0.9-2.2,2.1-4.4,2.1c-2.1,0-3.4-1.1-4.4-2.1
			c-23.3-23.8-45.6-46.4-54.3-70.3c-0.8-2.2-2.8-4-5.2-4.6c-12-2.8-25.1-6.6-38-11.6C47.5,74.2,46.8,74,46,74
			c-1.3,0-2.5,0.4-3.6,1.2c-1.7,1.3-2.5,3.3-2.3,5.3c2,19.8,9.8,39.2,24,59.5c13.3,19.1,30.6,36.8,47.4,53.9
			c30.9,31.5,60.1,61.3,62.6,95.8c0.2,3.1,2.8,5.5,6,5.5h36.3c1.6,0,3.2-0.7,4.3-1.9c1.1-1.2,1.7-2.8,1.6-4.4
			c-1.1-23.1-9.8-46.2-26.5-70.6c-3.5-5.1-7.3-10.1-11.2-15c-1.6-2-0.9-4.5,0.3-5.7c1.2-1.2,2.4-2.5,3.6-3.7
			c16.8-17.1,34.1-34.8,47.4-53.9c14.1-20.3,22-39.6,24-59.4C260.1,78.6,259.2,76.5,257.6,75.3z"/>
		<g>
			<path fill="#205081" d="M111.1,220.8c-0.9-0.9-2.1-1.8-4.2-1.8c-2.7,0-4.3,1.9-4.9,2.8c-15.3,23.2-23.1,45.1-24.2,67.2
				c-0.1,1.6,0.5,3.2,1.6,4.4c1.1,1.2,2.7,1.9,4.3,1.9h36.2c3.1,0,5.7-2.4,6-5.5c0.8-10.6,4.1-21.3,10.1-32.4
				c2.1-3.9,0.5-7.5-0.7-9.1C129.2,240.4,121.9,232.1,111.1,220.8z"/>
		</g>
		<path fill="#205081" d="M150,93.1c11.4,0,18-0.7,20.3-0.7c2.8,0,5.5,2.3,5.5,5.5c0,0.9-0.2,1.6-0.4,2.2c-1.5,4-8.4,18.5-21.2,31
			c-1.4,1.4-3.1,1.7-4.2,1.7h0c-1.1,0-2.7-0.3-4.2-1.7c-12.8-12.4-19.7-27-21.2-31c-0.2-0.6-0.4-1.3-0.4-2.2c0-3.2,2.7-5.5,5.5-5.5
			C132,92.4,138.6,93.1,150,93.1L150,93.1z"/>
	</g>
</g>
</svg>
