<?xml version="1.0" encoding="UTF-8" standalone="no"?><!DOCTYPE svg PUBLIC "-//W3C//DTD SVG 1.1//EN" "http://www.w3.org/Graphics/SVG/1.1/DTD/svg11.dtd"><svg width="100%" height="100%" viewBox="0 0 100 100" version="1.1" xmlns="http://www.w3.org/2000/svg" xmlns:xlink="http://www.w3.org/1999/xlink" xml:space="preserve" xmlns:serif="http://www.serif.com/" style="fill-rule:evenodd;clip-rule:evenodd;stroke-linejoin:round;stroke-miterlimit:1.41421;"><path d="M50,0c27.596,0 50,22.404 50,50c0,27.596 -22.404,50 -50,50c-27.596,0 -50,-22.404 -50,-50c0,-27.596 22.404,-50 50,-50Zm14.776,51.092c0.023,-0.013 8.099,-4.349 3.141,-11.075c1.952,-1.235 13.946,-14.467 -0.726,-25.508c-16.157,-12.158 -33.023,-2.748 -33.483,-2.709c-0.46,0.039 -9.484,4.281 -8.539,11.287c0.441,3.277 4.401,5.353 7.64,5.417c6.859,0.136 6.716,-1.695 10.337,-2.031c3.621,-0.336 8.287,1.01 8.539,3.386c0.253,2.376 -0.704,3.861 -3.146,5.417c-3.713,2.367 -10.305,-0.405 -11.236,-0.903c-2.779,-1.487 -10.82,-1.378 -10.786,3.838c0.064,9.869 8.449,12.881 8.449,12.881l-26.427,0c0,22.417 18.578,40.618 41.461,40.618c22.838,0 41.388,-18.13 41.46,-40.487l0.001,-0.131l-26.685,0Zm-32.192,-30.037c0.767,-3.644 10.199,-13.324 26.292,-5.192c15.302,8.57 5.204,20.165 3.821,21.219c-1.009,0.769 -5.861,5.368 -11.012,5.418c-9.535,0.092 -6.916,2.624 -1.123,2.483c6.042,-0.147 8.658,-2.348 10.337,-1.58c1.679,0.768 0.979,2.202 -1.124,3.612c-1.935,1.297 -9.391,3.236 -16.179,1.805c-9.015,-1.9 -10.148,-9.019 -9.888,-9.255c0.26,-0.235 -0.208,-1.805 5.393,-0.451c5.601,1.354 12.365,0.62 14.382,-1.58c0.72,-0.785 6.096,-4.139 2.023,-10.384c-4.454,-6.828 -13.164,-3.893 -17.079,-2.483c-1.792,0.645 -6.465,-0.653 -5.843,-3.612Z" style="fill:#e75649;"/></svg>