<svg id="Layer_1" xmlns="http://www.w3.org/2000/svg" viewBox="0 0 960 960"><style>.st0{fill:#004561}.st1{fill:#39a9dc}</style><path class="st0" d="M285.4 380.6v198.8l171.5-99.6zM296.5 598.8l171.7 99.3V499.3zM490.6 499.3v198.8l171.8-99.3zM501.7 479.8l171.7 99.6V380.6zM285.4 618v199l171.5-99.9zM296.5 836.1l171.7 99.3V736.6zM490.6 736.6v198.8l171.8-99.3zM501.7 717.1L673.4 817V618zM296.5 124.1l171.7 99.3V24.6zM490.6 24.6v198.8l171.8-99.3z"/><g><path class="st1" d="M80 261.9v198.8l171.6-99.2zM91.1 479.8l172 99.6V380.6zM695.7 380.6v199.1l172.9-99.9zM706.8 361.5L880 460.7V261.9zM80 499.3v198.8l171.6-99.3zM91.1 717.1l172 99.9V618zM695.7 618v199l172.9-99.9zM91.1 242.8l172 99.5V143.2zM285.4 143.2v199.1l171.5-99.5zM296.5 361.5l171.7 99.2V261.9zM490.6 261.9v198.8l171.8-99.2zM501.7 242.8l171.7 99.5V143.2zM695.7 143.2v199.1l172.9-99.5zM706.8 598.8L880 698.1V499.3z"/></g></svg>