<?xml version="1.0" encoding="UTF-8" standalone="no"?><!DOCTYPE svg PUBLIC "-//W3C//DTD SVG 1.1//EN" "http://www.w3.org/Graphics/SVG/1.1/DTD/svg11.dtd"><svg width="100%" height="100%" viewBox="0 0 269 270" version="1.1" xmlns="http://www.w3.org/2000/svg" xmlns:xlink="http://www.w3.org/1999/xlink" xml:space="preserve" xmlns:serif="http://www.serif.com/" style="fill-rule:evenodd;clip-rule:evenodd;stroke-linejoin:round;stroke-miterlimit:1.41421;"><g><path d="M115.933,163.123l38.019,0l0,70.92l19.153,0l-39.107,35.339l-37.782,-35.364l19.717,0.025l0,-70.92Z" style="fill:#5562ff;"/><path d="M106.393,115.932l0,38.02l-70.92,0l0,19.153l-35.339,-39.107l35.364,-37.782l-0.025,19.716l70.92,0Z" style="fill:#5562ff;"/><path d="M153.389,106.967l-38.019,0l0,-70.92l-19.154,0l39.107,-35.339l37.782,35.364l-19.716,-0.025l0,70.92Z" style="fill:#5562ff;"/><path d="M162.619,153.389l0,-38.02l70.92,0l0,-19.153l35.339,39.107l-35.364,37.782l0.025,-19.716l-70.92,0Z" style="fill:#5562ff;"/></g></svg>