<?xml version="1.0" encoding="UTF-8" standalone="no"?><!DOCTYPE svg PUBLIC "-//W3C//DTD SVG 1.1//EN" "http://www.w3.org/Graphics/SVG/1.1/DTD/svg11.dtd"><svg width="100%" height="100%" viewBox="0 0 100 100" version="1.1" xmlns="http://www.w3.org/2000/svg" xmlns:xlink="http://www.w3.org/1999/xlink" xml:space="preserve" xmlns:serif="http://www.serif.com/" style="fill-rule:evenodd;clip-rule:evenodd;stroke-linejoin:round;stroke-miterlimit:1.41421;"><path d="M99.273,39.288c-4.693,-21.563 -30.55,-34.243 -57.763,-28.329c-27.213,5.914 -45.463,28.194 -40.776,49.751c4.687,21.557 30.55,34.249 57.756,28.329c27.207,-5.92 45.47,-28.169 40.783,-49.751Zm-49.267,30.587c-10.903,0 -19.875,-8.972 -19.875,-19.876c0,-10.903 8.972,-19.876 19.875,-19.876c10.904,0 19.876,8.973 19.876,19.876c0,10.904 -8.972,19.876 -19.876,19.876Z" style="fill:#008c99;fill-rule:nonzero;"/><path d="M54.399,22.173c-15.653,0.003 -28.532,12.885 -28.532,28.538c0,15.655 12.882,28.538 28.538,28.538c15.655,0 28.538,-12.883 28.538,-28.538c0,0 0,0 0,0c0,-15.656 -12.883,-28.538 -28.538,-28.538c-0.002,0 -0.004,0 -0.006,0Zm-4.399,45.187c-9.524,0 -17.36,-7.837 -17.36,-17.361c0,-9.524 7.836,-17.361 17.36,-17.361c9.524,0 17.361,7.837 17.361,17.361c0,9.522 -7.833,17.357 -17.355,17.361l-0.006,0Z" style="fill:#70ccd3;fill-rule:nonzero;"/></svg>