<?xml version="1.0" encoding="UTF-8" standalone="no"?><!DOCTYPE svg PUBLIC "-//W3C//DTD SVG 1.1//EN" "http://www.w3.org/Graphics/SVG/1.1/DTD/svg11.dtd"><svg width="100%" height="100%" viewBox="0 0 85 98" version="1.1" xmlns="http://www.w3.org/2000/svg" xmlns:xlink="http://www.w3.org/1999/xlink" xml:space="preserve" xmlns:serif="http://www.serif.com/" style="fill-rule:evenodd;clip-rule:evenodd;stroke-linejoin:round;stroke-miterlimit:1.41421;"><g><path d="M42.118,0.186l-42.068,24.306l28.379,16.679l5.753,-3.507l13.948,7.789l0,-16.161l13.365,-8.032l0,16.194l23.401,-12.962l0,-0.064" style="fill:#25ba81;fill-rule:nonzero;"/><path d="M36.817,51.934l0,16.145l-12.735,8.081l0,-32.323l4.832,-2.957l-28.622,-16.388l-0.242,0l0,48.419l42.423,24.242l0,-41.987" style="fill:#25ba81;fill-rule:nonzero;"/><path d="M61.495,37.454l0,16.08l-11.2,6.481l-7.822,-4.849l0,41.987l0.226,0l42.197,-24.242l0,-48.419l-0.792,-0.016" style="fill:#1f9967;fill-rule:nonzero;"/></g></svg>