<?xml version="1.0" encoding="UTF-8"?>
<svg width="932px" height="148px" viewBox="0 0 932 148" version="1.1" xmlns="http://www.w3.org/2000/svg" xmlns:xlink="http://www.w3.org/1999/xlink">
    <!-- Generator: Sketch 49.3 (51167) - http://www.bohemiancoding.com/sketch -->
    <title>Postmark app logo</title>
    <desc>Created with Sketch.</desc>
    <defs></defs>
    <g id="Page-1" stroke="none" stroke-width="1" fill="none" fill-rule="evenodd">
        <g id="Postmark-app-logo" fill="#000000">
            <path d="M165.19,114.9 L180.96,114.9 L180.96,132 L130.8,132 L130.8,114.9 L146.38,114.9 L146.38,16.29 L130.8,16.29 L130.8,0.14 L183.81,0.14 C218.01,0.14 234.35,12.11 234.35,40.42 C234.35,68.73 218.2,81.46 183.81,81.46 L165.19,81.46 L165.19,114.9 Z M165.19,65.69 L180.96,65.69 C203.19,65.69 214.21,59.8 214.21,40.99 C214.21,22.18 203.19,16.29 180.96,16.29 L165.19,16.29 L165.19,65.69 Z M332.706667,85.83 C332.706667,115.47 313.326667,134.66 286.156667,134.66 C258.986667,134.66 239.796667,115.66 239.796667,85.83 C239.796667,56 258.986667,37 286.156667,37 C313.326667,37 332.706667,56.19 332.706667,85.83 Z M286.156667,117.56 C303.066667,117.56 314.086667,106.16 314.086667,85.64 C314.086667,65.31 303.446667,53.72 286.156667,53.72 C269.056667,53.72 258.226667,65.31 258.226667,85.64 C258.226667,105.97 269.436667,117.56 286.156667,117.56 Z M347.743333,132 L347.743333,100.65 L362.563333,100.65 C363.893333,112.81 373.013333,120.03 386.693333,120.03 C397.903333,120.03 404.743333,114.33 404.743333,107.3 C404.743333,100.27 399.043333,97.23 387.833333,94.57 L373.583333,91.34 C355.723333,87.16 347.363333,79.18 347.363333,64.74 C347.363333,49.35 360.853333,37 379.663333,37 C389.353333,37 397.713333,40.23 404.363333,46.31 L404.363333,39.28 L418.613333,39.28 L418.613333,69.49 L404.363333,69.49 C403.413333,58.47 394.103333,51.06 380.613333,51.06 C370.733333,51.06 364.653333,55.81 364.653333,63.03 C364.653333,69.87 369.783333,72.91 379.663333,75 L395.433333,78.23 C413.103333,82.03 421.653333,90.58 421.653333,104.64 C421.653333,122.31 408.543333,134.66 387.643333,134.66 C377.763333,134.66 369.023333,131.62 362.563333,125.73 L362.563333,132 L347.743333,132 Z M461.2,106.35 C461.2,114.9 462.72,118.13 468.61,118.13 C471.65,118.13 474.69,117.18 478.49,115.47 L478.49,131.62 C473.55,133.71 468.61,134.66 463.86,134.66 C446.76,134.66 444.48,125.73 444.48,109.2 L444.48,54.67 L432.32,54.67 L432.32,39.28 L444.48,39.28 L444.48,26.93 L461.2,13.06 L461.2,39.28 L478.49,39.28 L478.49,54.67 L461.2,54.67 L461.2,106.35 Z M520.756666,53.53 C532.346666,44.03 542.036666,39.28 552.676666,39.28 C563.886666,39.28 571.106666,44.22 573.956666,54.1 C585.546666,44.22 595.806666,39.28 606.636666,39.28 C625.826666,39.28 629.056666,51.44 629.056666,72.34 L629.056666,115.66 L642.546666,115.66 L642.546666,132 L611.766666,132 L611.766666,70.63 C611.766666,59.42 607.966666,54.1 600.176666,54.1 C592.006666,54.1 584.026666,58.85 575.286666,68.35 L575.286666,115.66 L588.776666,115.66 L588.776666,132 L557.996666,132 L557.996666,70.82 C557.996666,59.42 554.196666,54.1 546.216666,54.1 C538.046666,54.1 530.256666,58.85 521.516666,68.35 L521.516666,115.66 L535.006666,115.66 L535.006666,132 L490.926666,132 L490.926666,115.66 L504.416666,115.66 L504.416666,54.67 L490.926666,54.67 L490.926666,39.28 L520.756666,39.28 L520.756666,53.53 Z M714.163333,132 L714.163333,123.26 C704.853333,130.86 695.543333,134.66 684.713333,134.66 C666.473333,134.66 654.313333,122.69 654.313333,105.21 C654.313333,86.97 667.423333,74.81 687.183333,74.81 C694.213333,74.81 702.953333,77.09 713.593333,81.46 L713.593333,75.95 C713.593333,59.42 707.703333,51.63 694.023333,51.63 C684.143333,51.63 677.303333,55.62 671.603333,63.6 L655.453333,59.42 C661.343333,45.17 675.593333,37 695.353333,37 C721.763333,37 730.313333,49.73 730.313333,75.57 L730.313333,115.66 L744.373333,115.66 L744.373333,132 L714.163333,132 Z M714.163333,106.16 L714.163333,99.32 C705.613333,94.19 698.583333,90.96 690.413333,90.96 C679.583333,90.96 672.553333,96.66 672.553333,104.64 C672.553333,111.86 678.633333,117.56 687.753333,117.56 C695.543333,117.56 704.093333,113.57 714.163333,106.16 Z M767.799999,115.66 L767.799999,54.67 L753.049999,54.67 L753.049999,39.28 L785.756521,39.28 L785.756521,57.52 C793.024637,43.27 802.644203,37.57 818.89058,37.57 C819.745652,37.57 822.524638,37.57 826.8,37.76 L826.8,55.62 C824.021014,55.43 821.455797,55.24 818.89058,55.24 C795.376087,55.24 786.611594,67.4 786.611594,91.15 L786.611594,115.66 L805.20942,115.66 L805.20942,132 L753.049999,132 L753.049999,115.66 L767.799999,115.66 Z M844.346666,15.53 L831.046666,15.53 L831.046666,0.14 L861.066666,0.14 L861.066666,115.66 L874.556666,115.66 L874.556666,132 L831.046666,132 L831.046666,115.66 L844.346666,115.66 L844.346666,15.53 Z M897.726427,54.67 L884.822825,54.67 L884.822825,39.28 L929.985431,39.28 L929.985431,54.67 L918.493161,54.67 L884.01635,82.03 L917.686686,115.66 L931.8,115.66 L931.8,132 L909.420316,132 L861.636666,83.36 L897.726427,54.67 Z" id="Postmark"></path>
            <path d="M0,15.9771906 C20.8424479,4.51560209 47.5384115,-0.77931978 80.0878906,0.0924250113 C144.154297,6.11976876 162.649414,44.7350031 229.820312,43.1646906 C285.893555,41.4664484 312.261719,15.9771906 312.261719,15.9771906 C312.261719,21.4812444 312.261719,23.9771906 312.261719,23.9771906 C312.261719,23.9771906 283.265625,48.5810547 227.192383,50.2792969 C160.021484,51.8496094 143.237305,13.1777344 79.1708984,7.15039063 C46.6214193,6.27864583 20.2311198,11.8875792 0,23.9771906 L0,15.4270781" id="Path-2" fill-opacity="0.200000003"></path>
            <path d="M0,47.9771906 C20.8424479,36.5156021 47.5384115,31.2206802 80.0878906,32.092425 C144.154297,38.1197688 162.649414,76.7350031 229.820312,75.1646906 C285.893555,73.4664484 312.261719,47.9771906 312.261719,47.9771906 C312.261719,53.4812444 312.261719,55.9771906 312.261719,55.9771906 C312.261719,55.9771906 283.265625,80.5810547 227.192383,82.2792969 C160.021484,83.8496094 143.237305,45.1777344 79.1708984,39.1503906 C46.6214193,38.2786458 20.2311198,43.8875792 0,55.9771906 L0,47.4270781" id="Path-2-Copy" fill-opacity="0.200000003"></path>
            <path d="M0,79.9771906 C20.8424479,68.5156021 47.5384115,63.2206802 80.0878906,64.092425 C144.154297,70.1197688 162.649414,108.735003 229.820312,107.164691 C285.893555,105.466448 312.261719,79.9771906 312.261719,79.9771906 C312.261719,85.4812444 312.261719,87.9771906 312.261719,87.9771906 C312.261719,87.9771906 283.265625,112.581055 227.192383,114.279297 C160.021484,115.849609 143.237305,77.1777344 79.1708984,71.1503906 C46.6214193,70.2786458 20.2311198,75.8875792 0,87.9771906 L0,79.4270781" id="Path-2-Copy-2" fill-opacity="0.200000003"></path>
            <path d="M0,112.977191 C20.8424479,101.515602 47.5384115,96.2206802 80.0878906,97.092425 C144.154297,103.119769 162.649414,141.735003 229.820312,140.164691 C285.893555,138.466448 312.261719,112.977191 312.261719,112.977191 C312.261719,118.481244 312.261719,120.977191 312.261719,120.977191 C312.261719,120.977191 283.265625,145.581055 227.192383,147.279297 C160.021484,148.849609 143.237305,110.177734 79.1708984,104.150391 C46.6214193,103.278646 20.2311198,108.887579 0,120.977191 L0,112.427078" id="Path-2-Copy-3" fill-opacity="0.200000003"></path>
        </g>
    </g>
</svg>