<svg width="256" height="256" viewBox="0 0 256 256" xmlns="http://www.w3.org/2000/svg"><title>frameworks/logo_python</title><defs><linearGradient x1="12.959%" y1="11.7%" x2="79.639%" y2="78.453%" id="a"><stop stop-color="#387EB8" offset="0%"/><stop stop-color="#366994" offset="100%"/></linearGradient><linearGradient x1="19.128%" y1="20.316%" x2="90.742%" y2="88.773%" id="b"><stop stop-color="#FFE052" offset="0%"/><stop stop-color="#FFC331" offset="100%"/></linearGradient></defs><g fill="none" fill-rule="evenodd"><path d="M68.465.577C34.04.577 36.19 15.53 36.19 15.53l.038 15.491h32.85v4.652H23.18S1.15 33.17 1.15 67.963c0 34.792 19.227 33.558 19.227 33.558h11.475V85.376s-.618-19.259 18.92-19.259h32.582s18.306.297 18.306-17.72V18.604S104.441.577 68.465.577zM50.35 10.994a5.91 5.91 0 0 1 5.91 5.92 5.91 5.91 0 1 1-11.82 0 5.91 5.91 0 0 1 5.91-5.92z" fill="url(#a)" transform="translate(59.305 59.653)"/><path d="M69.443 135.697c34.425 0 32.275-14.953 32.275-14.953l-.039-15.492H68.83v-4.65h45.899s22.028 2.501 22.028-32.29c0-34.793-19.227-33.56-19.227-33.56h-11.475v16.146s.619 19.258-18.92 19.258H54.552s-18.306-.296-18.306 17.721v29.792s-2.779 18.028 33.197 18.028zm18.114-10.417a5.91 5.91 0 0 1-5.91-5.92 5.91 5.91 0 1 1 11.82 0 5.91 5.91 0 0 1-5.91 5.92z" fill="url(#b)" transform="translate(59.305 59.653)"/></g></svg>