<?xml version="1.0" encoding="UTF-8" standalone="no"?><!DOCTYPE svg PUBLIC "-//W3C//DTD SVG 1.1//EN" "http://www.w3.org/Graphics/SVG/1.1/DTD/svg11.dtd"><svg width="100%" height="100%" viewBox="0 0 201 46" version="1.1" xmlns="http://www.w3.org/2000/svg" xmlns:xlink="http://www.w3.org/1999/xlink" xml:space="preserve" xmlns:serif="http://www.serif.com/" style="fill-rule:evenodd;clip-rule:evenodd;stroke-linejoin:round;stroke-miterlimit:1.41421;"><g><path d="M1.03,34.936l0,-34.359l17.696,0c3.281,0 5.789,0.281 7.523,0.844c1.734,0.562 3.133,1.605 4.195,3.129c1.063,1.523 1.594,3.378 1.594,5.566c0,1.906 -0.406,3.551 -1.219,4.934c-0.812,1.382 -1.929,2.503 -3.351,3.363c-0.906,0.547 -2.149,1 -3.727,1.359c1.266,0.422 2.188,0.844 2.766,1.266c0.39,0.281 0.957,0.883 1.699,1.805c0.742,0.921 1.238,1.632 1.488,2.132l5.133,9.961l-12,0l-5.672,-10.5c-0.718,-1.359 -1.359,-2.242 -1.922,-2.648c-0.765,-0.531 -1.632,-0.797 -2.601,-0.797l-0.938,0l0,13.945l-10.664,0Zm10.664,-20.437l4.477,0c0.484,0 1.422,-0.156 2.812,-0.469c0.704,-0.141 1.278,-0.5 1.723,-1.078c0.445,-0.578 0.668,-1.242 0.668,-1.992c0,-1.11 -0.352,-1.961 -1.055,-2.555c-0.703,-0.594 -2.023,-0.891 -3.961,-0.891l-4.664,0l0,6.985Z" style="fill-rule:nonzero;stroke:#403471;stroke-width:1px;"/><path d="M35.905,28.046l9.469,-0.891c0.391,1.125 0.938,1.93 1.641,2.414c0.703,0.484 1.64,0.727 2.812,0.727c1.281,0 2.274,-0.274 2.977,-0.821c0.547,-0.406 0.82,-0.914 0.82,-1.523c0,-0.688 -0.359,-1.219 -1.078,-1.594c-0.516,-0.265 -1.883,-0.594 -4.102,-0.984c-3.312,-0.578 -5.613,-1.114 -6.902,-1.606c-1.289,-0.492 -2.375,-1.324 -3.258,-2.496c-0.883,-1.172 -1.324,-2.508 -1.324,-4.008c0,-1.64 0.477,-3.054 1.43,-4.242c0.953,-1.187 2.265,-2.074 3.937,-2.66c1.672,-0.586 3.914,-0.879 6.727,-0.879c2.968,0 5.16,0.227 6.574,0.68c1.414,0.453 2.594,1.156 3.539,2.109c0.945,0.953 1.73,2.242 2.355,3.867l-9.046,0.891c-0.235,-0.797 -0.625,-1.383 -1.172,-1.758c-0.75,-0.5 -1.657,-0.75 -2.719,-0.75c-1.078,0 -1.863,0.192 -2.355,0.574c-0.493,0.383 -0.739,0.848 -0.739,1.395c0,0.609 0.313,1.07 0.938,1.383c0.625,0.312 1.984,0.594 4.078,0.844c3.172,0.359 5.531,0.859 7.078,1.5c1.547,0.64 2.73,1.554 3.551,2.742c0.82,1.187 1.23,2.492 1.23,3.914c0,1.437 -0.433,2.836 -1.301,4.195c-0.867,1.359 -2.234,2.441 -4.101,3.246c-1.867,0.805 -4.41,1.207 -7.629,1.207c-4.547,0 -7.785,-0.648 -9.715,-1.945c-1.93,-1.297 -3.168,-3.141 -3.715,-5.531Z" style="fill-rule:nonzero;stroke:#403471;stroke-width:1px;"/><path d="M64.147,10.046l10.079,0l5.132,16.57l4.758,-16.57l9.399,0l-9.868,26.601c-1.125,3.031 -2.273,5.078 -3.445,6.141c-1.656,1.5 -4.18,2.25 -7.57,2.25c-1.375,0 -3.5,-0.188 -6.375,-0.563l-0.75,-6.656c1.375,0.438 2.906,0.656 4.594,0.656c1.125,0 2.035,-0.257 2.73,-0.773c0.695,-0.516 1.285,-1.438 1.77,-2.766l-10.454,-24.89Z" style="fill-rule:nonzero;stroke:#403471;stroke-width:1px;"/><path d="M94.546,28.046l9.469,-0.891c0.39,1.125 0.937,1.93 1.64,2.414c0.703,0.484 1.641,0.727 2.813,0.727c1.281,0 2.273,-0.274 2.976,-0.821c0.547,-0.406 0.821,-0.914 0.821,-1.523c0,-0.688 -0.36,-1.219 -1.078,-1.594c-0.516,-0.265 -1.883,-0.594 -4.102,-0.984c-3.313,-0.578 -5.613,-1.114 -6.902,-1.606c-1.289,-0.492 -2.375,-1.324 -3.258,-2.496c-0.883,-1.172 -1.324,-2.508 -1.324,-4.008c0,-1.64 0.476,-3.054 1.429,-4.242c0.953,-1.187 2.266,-2.074 3.938,-2.66c1.672,-0.586 3.914,-0.879 6.726,-0.879c2.969,0 5.161,0.227 6.575,0.68c1.414,0.453 2.593,1.156 3.539,2.109c0.945,0.953 1.73,2.242 2.355,3.867l-9.047,0.891c-0.234,-0.797 -0.625,-1.383 -1.172,-1.758c-0.75,-0.5 -1.656,-0.75 -2.718,-0.75c-1.079,0 -1.864,0.192 -2.356,0.574c-0.492,0.383 -0.738,0.848 -0.738,1.395c0,0.609 0.312,1.07 0.937,1.383c0.625,0.312 1.985,0.594 4.078,0.844c3.172,0.359 5.532,0.859 7.079,1.5c1.546,0.64 2.73,1.554 3.55,2.742c0.821,1.187 1.231,2.492 1.231,3.914c0,1.437 -0.434,2.836 -1.301,4.195c-0.867,1.359 -2.234,2.441 -4.101,3.246c-1.868,0.805 -4.411,1.207 -7.629,1.207c-4.547,0 -7.786,-0.648 -9.715,-1.945c-1.93,-1.297 -3.168,-3.141 -3.715,-5.531Z" style="fill-rule:nonzero;stroke:#403471;stroke-width:1px;"/><rect x="125.882" y="0.577" width="9.563" height="34.359" style="fill-rule:nonzero;stroke:#403471;stroke-width:1px;"/><path d="M140.366,22.561c0,-3.797 1.281,-6.926 3.844,-9.386c2.562,-2.461 6.023,-3.692 10.383,-3.692c4.984,0 8.75,1.445 11.297,4.336c2.047,2.328 3.07,5.195 3.07,8.602c0,3.828 -1.27,6.964 -3.809,9.41c-2.539,2.445 -6.05,3.668 -10.535,3.668c-4,0 -7.234,-1.016 -9.703,-3.047c-3.031,-2.516 -4.547,-5.813 -4.547,-9.891Zm9.563,-0.023c0,2.219 0.449,3.859 1.347,4.922c0.899,1.062 2.028,1.593 3.387,1.593c1.375,0 2.504,-0.523 3.387,-1.57c0.883,-1.047 1.324,-2.726 1.324,-5.039c0,-2.156 -0.445,-3.762 -1.336,-4.816c-0.891,-1.055 -1.992,-1.582 -3.305,-1.582c-1.39,0 -2.539,0.535 -3.445,1.605c-0.906,1.07 -1.359,2.699 -1.359,4.887Z" style="fill-rule:nonzero;stroke:#403471;stroke-width:1px;"/><path d="M190.874,10.046l8.93,0l0,23.507l0.023,1.102c0,1.563 -0.332,3.051 -0.996,4.465c-0.664,1.414 -1.547,2.558 -2.648,3.433c-1.102,0.875 -2.5,1.508 -4.196,1.899c-1.695,0.391 -3.636,0.586 -5.824,0.586c-5,0 -8.433,-0.75 -10.301,-2.25c-1.867,-1.5 -2.8,-3.508 -2.8,-6.024c0,-0.312 0.015,-0.734 0.046,-1.265l9.258,1.054c0.235,0.86 0.594,1.454 1.078,1.782c0.703,0.484 1.586,0.726 2.649,0.726c1.375,0 2.402,-0.367 3.082,-1.101c0.68,-0.735 1.019,-2.016 1.019,-3.844l0,-3.773c-0.937,1.109 -1.875,1.914 -2.812,2.414c-1.469,0.781 -3.055,1.171 -4.758,1.171c-3.328,0 -6.016,-1.453 -8.062,-4.359c-1.454,-2.062 -2.18,-4.789 -2.18,-8.18c0,-3.875 0.937,-6.828 2.812,-8.859c1.875,-2.031 4.328,-3.047 7.36,-3.047c1.937,0 3.535,0.328 4.793,0.985c1.258,0.656 2.433,1.742 3.527,3.257l0,-3.679Zm-8.977,12.07c0,1.797 0.383,3.129 1.149,3.996c0.766,0.867 1.773,1.301 3.023,1.301c1.188,0 2.184,-0.449 2.989,-1.348c0.804,-0.898 1.207,-2.254 1.207,-4.066c0,-1.813 -0.422,-3.199 -1.266,-4.16c-0.844,-0.961 -1.875,-1.442 -3.094,-1.442c-1.218,0 -2.191,0.442 -2.918,1.324c-0.726,0.883 -1.09,2.348 -1.09,4.395Z" style="fill-rule:nonzero;stroke:#403471;stroke-width:1px;"/></g></svg>