<?xml version="1.0" encoding="utf-8"?>
<!-- Generator: Adobe Illustrator 21.1.0, SVG Export Plug-In . SVG Version: 6.00 Build 0)  -->
<svg version="1.1" id="Layer_2" xmlns="http://www.w3.org/2000/svg" xmlns:xlink="http://www.w3.org/1999/xlink" x="0px" y="0px"
	 viewBox="0 0 797.5 167.9" style="enable-background:new 0 0 797.5 167.9;" xml:space="preserve">
<style type="text/css">
	.st0{fill:#1194D2;}
	.st1{fill:#FFFFFF;}
	.st2{fill:#2C97D4;}
	.st3{fill:#2D2829;}
	.st4{fill:#2196D3;}
	.st5{fill:#2C2728;}
	.st6{fill:#2E292A;}
	.st7{fill:#2596D3;}
</style>
<path class="st0" d="M99.4,34.1H34.1c-11.1,0-20.2,9.1-20.2,20.2v65.2c0,11.1,9.1,20.2,20.2,20.2h65.2c11.1,0,20.2-9.1,20.2-20.2
	V54.3C119.6,43.2,110.5,34.1,99.4,34.1z"/>
<path class="st1" d="M88.8,80.5H73.2V65c0-3.5-2.9-6.4-6.4-6.4c-3.5,0-6.4,2.9-6.4,6.4v15.6H44.8c-3.5,0-6.4,2.9-6.4,6.4
	c0,3.5,2.9,6.4,6.4,6.4h15.6V109c0,3.5,2.9,6.4,6.4,6.4c3.5,0,6.4-2.9,6.4-6.4V93.4h15.6c3.5,0,6.4-2.9,6.4-6.4
	C95.2,83.4,92.3,80.5,88.8,80.5z"/>
<g>
	<path class="st2" d="M514,23.5c-0.1,30.9-0.1,64.9-0.1,95.8c0,1.5-0.1,3-0.4,4.4c-0.8,3.1-3,4.9-6.2,4.8c-3.1-0.2-5.2-2.2-5.9-5.2
		c-0.3-1.4-0.2-3-0.2-4.5c0-30.8,0.1-64.6-0.1-95.3"/>
	<path class="st3" d="M299,90.2c0-10,0-20,0-30c0-2.6,0.6-4.8,2.6-6.7c10.1-9.2,34.7-12.3,45.7-4.2c5.3,3.9,8.1,3.3,13.2,0.2
		c10.4-6.4,21.9-6.3,33.1-1.8c9.8,4,13.8,12.5,14.4,22.2c1,17.3,0.1,34.6-0.3,51.9c-0.1,4-2.3,6.9-6.5,6.7c-4.4-0.2-6.2-3.3-6.2-7.5
		c0-13.5,0-27,0-40.5c0-2.5-0.1-5-0.3-7.5c-0.7-7.1-3.1-13.1-10.7-15.3c-8.2-2.3-15.8-0.8-22.3,5c-1.9,1.7-1.7,3.8-1.7,6
		c0,16.3,0,32.6,0,49c0,1.5,0.1,3-0.2,4.5c-0.6,3.8-2.6,6.2-6.7,5.9c-3.7-0.2-5.7-2.6-5.9-6.2c-0.2-2.2-0.1-4.3-0.1-6.5
		c0-12.8,0.1-25.6,0-38.5c0-7.4-1-14.7-8.8-18.2c-8.3-3.7-16.6-2.2-24.5,1.8c-2.4,1.2-1.8,3.4-1.8,5.3c0,17.3,0,34.6,0,52
		c0,1.2,0.1,2.3,0,3.5c-0.3,4.6-2.9,7.4-6.5,7.4c-3.6-0.1-6.3-3-6.3-7.5c-0.1-9,0-18,0-27C299,92.9,299,91.5,299,90.2z"/>
	<path class="st4" d="M659.8,122c-9.5,3.5-18.8,6-28.6,4.3c-13.9-2.3-22.6-10.3-25.3-24.1c-2.2-11.2-2.4-22.6,0.3-33.7
		c3.5-14.5,15.2-23.5,30.1-23.8c11.1-0.2,21.5,2,31.2,7.5c3.1,1.8,4.9,4,4.9,7.9c0,20.3,0.5,40.7,0.4,61c0,17.6-7.8,29-22.2,33.5
		c-8.3,2.6-16.7,2.8-25.2,1.9c-3-0.3-5.9-0.9-8.9-1.5c-4-0.9-6.4-3.2-5.3-7.5c1-4,3.9-4.9,7.8-4.2c8.2,1.5,16.5,2.7,24.8,0.7
		C654.4,141.5,660.2,133.8,659.8,122z M660.1,85.9c0-3.8,0-7.7,0-11.5c0-13.8-1.7-15.7-15.7-17.3c-2.8-0.3-5.7-0.3-8.5-0.1
		c-9.7,0.7-16.1,6.2-17.8,15.9c-1.6,9.1-1.6,18.3,0.2,27.3c1.5,7.7,6,13.2,13.9,14.5c8.6,1.5,16.9,0,24.8-3.7
		c2.5-1.2,3.2-2.9,3.2-5.6C660,98.9,660.1,92.4,660.1,85.9z"/>
	<path class="st5" d="M418.8,86.3c0.3-4.8,0.1-9.7,0.9-14.4c2.9-16.7,16.9-27.7,34.7-27.5c18.2,0.2,31.8,11.5,34.1,28.7
		c1.3,9.4,1.3,19-0.2,28.4c-2.7,17.3-17.9,28.5-37.1,27.5c-17.3-0.9-31-14.2-31.9-31.2c-0.2-3.8,0-7.7,0-11.5
		C419.1,86.3,418.9,86.3,418.8,86.3z M476.1,86.4c-0.3-4.1-0.4-8.3-0.9-12.4c-1.5-10.4-10.2-17.1-21.9-17.1
		c-11.4,0-19.7,6.5-21.3,17c-1.2,8.3-1.2,16.6-0.1,24.9c1.6,11.3,10.2,18.2,22.1,18.1c11.4-0.1,19.8-7.4,21.2-18.5
		C475.8,94.5,475.9,90.5,476.1,86.4z"/>
	<path class="st4" d="M595.5,85.4c-0.4,7,0.2,12.6-1.2,18.2c-4,16.5-19.5,26.9-37.5,25.2c-17.1-1.6-29.8-14.5-30.8-31.2
		c-0.4-7-0.5-13.9-0.1-20.9c1-16.3,10.6-27.9,26.5-31.3c20.2-4.4,39,7.2,42.4,26.4C595.6,76.6,595.3,81.7,595.5,85.4z M538.2,86.2
		c0.1,4.6-0.1,9.3,0.8,13.9c2.2,10.5,10.4,16.9,21.6,16.9c11.2,0,19.6-6.5,21.5-17c1.5-8.6,1.4-17.2,0.2-25.9
		c-1.5-10.4-9.8-17.1-21.1-17.3c-12.2-0.2-19.9,5.6-22.2,16.4C538.1,77.6,538.3,81.9,538.2,86.2z"/>
	<path class="st6" d="M283.3,83.6c0,10,0,20,0,30c0,2.9-0.7,5.1-3.3,6.7c-13.6,8.3-28.1,11.2-43.5,6.8c-12.2-3.5-19.3-12-20.4-24.5
		c-1.4-16.8-0.5-33.6-0.4-50.4c0-4,2.3-6.7,6.6-6.5c4.3,0.2,6,3.1,6,7.1c0,14,0,28,0,42c0,15.6,7.1,22.5,22.8,22.2
		c1.5,0,3-0.1,4.5-0.4c13.8-2.2,14.9-3.4,14.9-17.2c0-14.3,0-28.7,0-43c0-1.3-0.1-2.7,0.1-4c0.4-3.9,2.1-6.8,6.5-6.7
		c4.2,0.1,6.2,2.8,6.3,6.9C283.4,62.9,283.3,73.3,283.3,83.6z"/>
	<path class="st3" d="M180.3,129.5c-12.7-0.2-21.4-2.1-28.8-7.8c-3.8-3-4.9-6.9-2.3-9.8c3-3.5,6.5-2.8,9.8-0.3
		c7.8,6,16.6,7.4,26,5.5c6.5-1.3,10.4-5.6,10.7-11.4c0.3-5.4-2.8-8.9-9.8-10.8c-5.5-1.5-11-2.5-16.5-4.1
		c-13.9-4.1-19.9-11.4-19.3-23c0.5-11.3,8.8-19.9,22-22.2c9.5-1.7,18.6-0.3,27,4.5c4.2,2.4,5.8,6.2,3.7,9.5
		c-2.5,3.9-6.1,3.7-9.6,1.6c-6.3-3.7-12.9-5.3-20.1-4.1c-4.8,0.8-8.9,2.9-10.2,8.2c-1.3,5.4,0.2,9.2,5.2,11.5
		c5.6,2.6,11.7,3.8,17.7,5c3.3,0.7,6.4,1.7,9.4,3.2c15.7,7.6,17.4,28.3,3.2,38.5C192,128.1,184.6,129.4,180.3,129.5z"/>
	<path class="st7" d="M712.2,86.2c0.1-5-0.2-10,0.8-14.9c2.5-13.2,12.7-23.3,26.5-26c15.2-2.9,29.8,2.7,36.9,14.1
		c1.4,2.3,2.6,4.7,2.7,7.4c0.2,3.1-1,5.6-4.2,6.6c-2.9,1-5.2-0.2-7.1-2.4c-0.6-0.8-1-1.7-1.5-2.6c-5.3-9.9-14.3-13.9-25.7-11.2
		c-9.5,2.3-15.3,9.7-15.7,20.5c-0.2,6-0.2,12,0,18c0.4,10.9,6.6,18.5,16.8,20.8c10.7,2.4,20.2-1.8,25.3-11.3c2.6-4.8,5.5-6.4,9-4.8
		c3.3,1.5,4.6,5.5,2.5,10c-5.3,11.5-14.9,17.3-27.2,18.4c-23.1,2-38.7-12.4-39.2-35.6C712.2,90.8,712.2,88.5,712.2,86.2z"/>
	<path class="st2" d="M688.1,86.9c0-11,0-22,0-32.9c0-5.4,2-8,5.9-8.2c4.1-0.2,6.7,2.8,6.8,8.1c0.1,22.3,0.1,44.6,0,66.9
		c0,4.9-2.8,8-6.5,7.8c-3.7-0.2-6.1-3.4-6.1-8.2C688.1,109.2,688.1,98.1,688.1,86.9z"/>
</g>
<circle class="st4" cx="694.8" cy="25.6" r="8.1"/>
<circle class="st2" cx="507.5" cy="23.2" r="6.4"/>
</svg>
