<svg version="1.1" id="Layer_1" xmlns="http://www.w3.org/2000/svg" xmlns:xlink="http://www.w3.org/1999/xlink" x="0px" y="0px"
	 viewBox="0 0 128 128" style="enable-background:new 0 0 128 128;" xml:space="preserve">
<style type="text/css">
	.st0{fill:#F9AC41;}
</style>
<path class="st0" d="M78.5,8.2c54.9,37.3,37.2,78.5,37.2,78.5s15.6,17.6,9.3,33c0,0-6.5-10.8-17.2-10.8c-10.4,0-16.5,10.8-37.5,10.8
	c-46.7,0-68.8-39-68.8-39c42,27.7,70.7,8.1,70.7,8.1C53.3,77.9,13,25.3,13,25.3C48.1,55.2,63.3,63,63.3,63c-9.1-7.5-34.5-44-34.5-44
	c20.3,20.6,60.7,49.2,60.7,49.2C101,36.6,78.5,8.2,78.5,8.2z"/>
</svg>