<?xml version="1.0" encoding="UTF-8" standalone="no"?><!DOCTYPE svg PUBLIC "-//W3C//DTD SVG 1.1//EN" "http://www.w3.org/Graphics/SVG/1.1/DTD/svg11.dtd"><svg width="100%" height="100%" viewBox="0 0 1253 818" version="1.1" xmlns="http://www.w3.org/2000/svg" xmlns:xlink="http://www.w3.org/1999/xlink" xml:space="preserve" xmlns:serif="http://www.serif.com/" style="fill-rule:evenodd;clip-rule:evenodd;stroke-linejoin:round;stroke-miterlimit:1.41421;"><g><path d="M619.052,348.278c226.467,0 410.093,31.847 410.093,71.15l116.14,0c-112.602,-60.787 -303.304,-101.101 -518.144,-101.101c-214.841,0 -405.922,39.809 -518.145,101.101l101.102,0c-1.138,-39.303 182.487,-71.15 408.954,-71.15Z" style="fill:#8f6a53;fill-rule:nonzero;"/><ellipse cx="619.052" cy="419.428" rx="410.092" ry="71.15" style="fill:#654440;"/><path d="M668.466,351.817c3.953,16.559 5.95,33.526 5.95,50.551c0,119.423 -98.271,217.694 -217.694,217.694c-100.414,0 -188.427,-69.475 -211.744,-167.144c-27.677,-117.025 0,-423.109 116.772,-450.785c116.772,-27.677 278.913,232.785 306.716,349.684Z" style="fill:#a3bacc;fill-rule:nonzero;"/><path d="M322.772,253.629c24.574,-1.529 46.431,27.863 48.778,65.594c2.347,37.731 -15.698,69.605 -40.272,71.134c-24.574,1.529 -46.43,-27.863 -48.778,-65.594c-2.347,-37.731 15.698,-69.605 40.272,-71.134Z" style="fill:#7b9cb6;"/><path d="M366.758,186.776c23.051,-2.847 44.57,17.547 48.024,45.513c3.453,27.967 -12.457,52.983 -35.509,55.83c-23.051,2.846 -44.57,-17.548 -48.024,-45.514c-3.453,-27.966 12.458,-52.982 35.509,-55.829Z" style="fill:#7b9cb6;"/><path d="M351.906,61.931c20.895,-2.581 39.865,11.566 42.336,31.572c2.47,20.005 -12.488,38.342 -33.383,40.923c-20.895,2.58 -39.865,-11.567 -42.335,-31.573c-2.471,-20.005 12.487,-38.342 33.382,-40.922Z" style="fill:#355c91;"/><path d="M540.951,334.032c33.614,-11.207 71.507,11.496 84.568,50.667c13.061,39.171 -3.625,80.073 -37.238,91.281c-33.613,11.207 -71.507,-11.496 -84.568,-50.667c-13.061,-39.171 3.625,-80.073 37.238,-91.281Z" style="fill:#476780;"/><path d="M492.297,71.008c-20.852,12.638 -21.737,49.54 -1.77,81.639c19.968,32.1 53.209,47.977 73.508,49.133c9.148,0.521 27.262,-6.262 28.996,-15.26c-22.912,-35.127 -63.064,-89.077 -92.267,-119.177c-2.988,0.795 -5.842,2.031 -8.467,3.665Z" style="fill:#355c91;fill-rule:nonzero;"/><path d="M385.508,512.947c-40.061,-19.209 -83.914,-11.121 -97.942,18.072c-0.804,1.673 -1.48,3.406 -2.022,5.181c33.203,42.362 80.945,70.962 133.96,80.25c5.671,-4.164 10.264,-9.624 13.396,-15.924c13.901,-29.193 -7.204,-68.37 -47.392,-87.579Z" style="fill:#f48d80;fill-rule:nonzero;"/><path d="M1016,461.259c-14.491,78.983 -83.989,136.891 -164.29,136.891c-91.631,0 -167.032,-75.401 -167.032,-167.032c0,-10.109 0.918,-20.197 2.742,-30.141c16.556,-90.612 130.421,-296.985 221.033,-280.303c90.612,16.682 124.228,249.847 107.547,340.585Z" style="fill:#6452af;fill-rule:nonzero;"/><path d="M783.251,316.5c9.99,-27.167 32.504,-43.927 50.244,-37.403c17.741,6.524 24.033,33.876 14.043,61.044c-9.99,27.167 -32.504,43.927 -50.245,37.403c-17.74,-6.523 -24.033,-33.876 -14.042,-61.044Z" style="fill:#422c83;"/><path d="M834.751,267.989c6.217,-20.709 25.095,-33.371 42.13,-28.257c17.035,5.114 25.818,26.079 19.601,46.789c-6.217,20.709 -25.095,33.37 -42.13,28.256c-17.035,-5.114 -25.818,-26.079 -19.601,-46.788Z" style="fill:#422c83;"/><path d="M880.939,172.908c4.452,-14.83 17.938,-23.907 30.096,-20.257c12.158,3.65 18.414,18.653 13.962,33.484c-4.452,14.83 -17.937,23.907 -30.096,20.257c-12.158,-3.65 -18.414,-18.653 -13.962,-33.484Z" style="fill:#571491;"/><path d="M873.136,466.131c2.931,-31.53 27.3,-55.084 54.386,-52.567c27.085,2.517 46.696,30.16 43.765,61.69c-2.93,31.53 -27.299,55.085 -54.385,52.567c-27.085,-2.517 -46.696,-30.159 -43.766,-61.69Z" style="fill:#571491;"/><path d="M979.1,209.643c-18.704,2.654 -30.457,28.056 -26.413,56.743c4.044,28.688 22.495,50.551 41.199,47.265c6.954,-1.329 13.073,-5.439 16.934,-11.374c-5.182,-31.729 -13.435,-62.88 -24.643,-93.013c-2.366,-0.192 -4.746,-0.065 -7.077,0.379Z" style="fill:#403471;fill-rule:nonzero;"/><path d="M786.914,477.366c-22.242,-25.275 -74.722,-24.195 -93.552,-8.019c-1.073,0.947 -2.086,1.96 -3.033,3.033c10.358,40.029 35.172,74.842 69.633,97.689c5.266,-1.161 10.168,-3.59 14.281,-7.077c18.451,-16.176 34.914,-59.719 12.671,-85.626Z" style="fill:#571491;fill-rule:nonzero;"/><path d="M1145.29,419.428l-116.14,0c0,39.177 -183.626,71.024 -410.093,71.024c-226.467,0 -410.092,-31.847 -410.092,-71.024l-101.101,0c-67.359,36.523 -107.041,80.755 -107.041,128.273c0,126.376 280.303,228.868 626.07,228.868c345.766,0 625.943,-102.492 625.943,-228.868c0,-47.518 -39.682,-91.75 -107.546,-128.273Z" style="fill:#8f6a53;fill-rule:nonzero;"/><path d="M67.74,379.198c-0.202,-0.349 -0.648,-0.469 -0.997,-0.267l-31.788,18.353c-0.349,0.201 -0.469,0.648 -0.268,0.997l54.181,93.843c0.202,0.349 0.648,0.469 0.997,0.268l31.788,-18.353c0.349,-0.202 0.469,-0.649 0.268,-0.998l-54.181,-93.843Z" style="fill:#8f6a53;"/><path d="M59.661,418.417c-0.201,-0.349 -0.648,-0.469 -0.997,-0.267l-31.788,18.352c-0.349,0.202 -0.469,0.649 -0.267,0.998l54.18,93.843c0.202,0.349 0.649,0.469 0.998,0.268l31.788,-18.353c0.349,-0.202 0.468,-0.649 0.267,-0.998l-54.181,-93.843Z" style="fill:#8f6a53;"/><path d="M297.539,706.563c0.147,-0.375 -0.039,-0.799 -0.414,-0.946l-34.177,-13.387c-0.376,-0.147 -0.799,0.039 -0.946,0.414l-39.521,100.897c-0.147,0.375 0.038,0.799 0.413,0.946l34.178,13.387c0.375,0.147 0.799,-0.038 0.946,-0.413l39.521,-100.898Z" style="fill:#8f6a53;"/><path d="M966.291,686.644c0.147,-0.375 -0.038,-0.799 -0.413,-0.946l-34.178,-13.387c-0.375,-0.147 -0.799,0.038 -0.946,0.413l-39.521,100.898c-0.147,0.375 0.039,0.799 0.414,0.946l34.177,13.387c0.375,0.147 0.799,-0.038 0.946,-0.414l39.521,-100.897Z" style="fill:#8f6a53;"/><path d="M301.728,692.786c-0.11,-0.388 -0.514,-0.614 -0.901,-0.505l-35.326,9.97c-0.388,0.109 -0.614,0.513 -0.505,0.901l29.432,104.288c0.11,0.387 0.513,0.613 0.901,0.504l35.326,-9.97c0.388,-0.109 0.614,-0.513 0.504,-0.901l-29.431,-104.287Z" style="fill:#8f6a53;"/><path d="M1006.9,701.965c-0.109,-0.387 -0.513,-0.613 -0.9,-0.504l-35.326,9.97c-0.388,0.109 -0.614,0.513 -0.505,0.901l29.432,104.287c0.11,0.388 0.513,0.614 0.901,0.505l35.326,-9.97c0.388,-0.109 0.614,-0.513 0.504,-0.901l-29.432,-104.288Z" style="fill:#8f6a53;"/><path d="M149.265,612.224c0.201,-0.349 0.081,-0.796 -0.268,-0.998l-31.788,-18.352c-0.349,-0.202 -0.796,-0.082 -0.997,0.267l-54.181,93.843c-0.201,0.349 -0.081,0.796 0.268,0.998l31.788,18.353c0.349,0.201 0.795,0.081 0.997,-0.268l54.181,-93.843Z" style="fill:#8f6a53;"/><path d="M1173.24,377.522c0.082,-0.264 -0.065,-0.544 -0.328,-0.627l-24.009,-7.524c-0.263,-0.082 -0.544,0.064 -0.626,0.328l-22.263,71.04c-0.083,0.263 0.064,0.544 0.328,0.627l24.008,7.523c0.264,0.083 0.544,-0.064 0.627,-0.327l22.263,-71.04Z" style="fill:#8f6a53;"/><path d="M576.256,647.731c0,-0.386 -0.314,-0.7 -0.7,-0.7l-107.79,0c-0.386,0 -0.7,0.314 -0.7,0.7l0,34.997c0,0.386 0.314,0.7 0.7,0.7l107.79,0c0.386,0 0.7,-0.314 0.7,-0.7l0,-34.997Z" style="fill:#654440;"/><path d="M1036.82,618.859c0,-0.386 -0.313,-0.7 -0.7,-0.7l-107.789,0c-0.386,0 -0.7,0.314 -0.7,0.7l0,34.997c0,0.386 0.314,0.7 0.7,0.7l107.789,0c0.387,0 0.7,-0.314 0.7,-0.7l0,-34.997Z" style="fill:#654440;"/><path d="M226.172,546.734c0,-0.387 -0.314,-0.7 -0.7,-0.7l-107.79,0c-0.386,0 -0.7,0.313 -0.7,0.7l0,34.996c0,0.387 0.314,0.7 0.7,0.7l107.79,0c0.386,0 0.7,-0.313 0.7,-0.7l0,-34.996Z" style="fill:#654440;"/><path d="M834.634,597.409c0,-0.789 -0.641,-1.43 -1.43,-1.43l-228.859,0c-0.789,0 -1.43,0.641 -1.43,1.43l0,53.437c0,0.79 0.641,1.43 1.43,1.43l228.859,0c0.789,0 1.43,-0.64 1.43,-1.43l0,-53.437Z" style="fill:#654440;"/></g></svg>